<svg width="554" height="554" viewBox="0 0 554 554" fill="none" xmlns="http://www.w3.org/2000/svg">
<g clip-path="url(#clip0)">
<path d="M76.7749 179.141C67.2459 179.141 59.1609 182.464 52.5149 189.11C45.8689 195.756 42.5449 203.731 42.5449 213.039V355.953C42.5449 365.494 45.8679 373.572 52.5149 380.219C59.1609 386.865 67.2459 390.189 76.7749 390.189C86.2969 390.189 94.3329 386.866 100.876 380.219C107.406 373.573 110.68 365.494 110.68 355.953V213.039C110.68 203.73 107.357 195.756 100.71 189.11C94.0629 182.464 86.0829 179.141 76.7749 179.141Z" fill="white"/>
<path d="M351.973 50.8468L375.571 7.31478C377.12 4.43278 376.569 2.22278 373.913 0.668778C371.03 -0.671222 368.815 0.00777793 367.267 2.65778L343.339 46.5378C322.284 37.2288 300.015 32.5658 276.532 32.5658C253.044 32.5658 230.773 37.2298 209.726 46.5378L185.797 2.65778C184.242 0.00777793 182.027 -0.665222 179.151 0.668778C176.489 2.22978 175.938 4.43278 177.493 7.31478L201.092 50.8468C177.163 63.0498 158.105 80.0448 143.925 101.869C129.745 123.705 122.652 147.567 122.652 173.497H430.078C430.078 147.573 422.984 123.71 408.805 101.869C394.624 80.0448 375.676 63.0498 351.973 50.8468ZM215.54 114.165C212.988 116.723 209.94 117.996 206.397 117.996C202.847 117.996 199.861 116.723 197.425 114.165C194.989 111.619 193.771 108.583 193.771 105.028C193.771 101.485 194.989 98.4428 197.425 95.8908C199.861 93.3448 202.854 92.0718 206.397 92.0718C209.94 92.0718 212.988 93.3448 215.54 95.8908C218.086 98.4488 219.365 101.485 219.365 105.028C219.358 108.577 218.08 111.619 215.54 114.165ZM355.626 114.165C353.185 116.723 350.192 117.996 346.655 117.996C343.104 117.996 340.057 116.723 337.51 114.165C334.959 111.619 333.686 108.583 333.686 105.028C333.686 101.485 334.959 98.4428 337.51 95.8908C340.057 93.3448 343.104 92.0718 346.655 92.0718C350.198 92.0718 353.184 93.3448 355.626 95.8908C358.064 98.4488 359.28 101.485 359.28 105.028C359.28 108.577 358.063 111.619 355.626 114.165Z" fill="white"/>
<path d="M123.973 406.804C123.973 417.006 127.516 425.642 134.603 432.729C141.696 439.816 150.332 443.359 160.527 443.359H185.123L185.46 518.813C185.46 528.341 188.783 536.432 195.429 543.079C202.075 549.726 210.056 553.049 219.358 553.049C228.881 553.049 236.971 549.726 243.618 543.079C250.265 536.432 253.588 528.342 253.588 518.813V443.366H299.452V518.813C299.452 528.341 302.774 536.432 309.421 543.079C316.068 549.726 324.151 553.049 333.681 553.049C343.204 553.049 351.294 549.726 357.941 543.079C364.588 536.432 367.91 528.342 367.91 518.813V443.366H392.838C402.807 443.366 411.332 439.822 418.432 432.735C425.518 425.648 429.063 417.012 429.063 406.811V185.45H123.973V406.804Z" fill="white"/>
<path d="M476.276 179.141C466.967 179.141 458.993 182.415 452.346 188.945C445.7 195.487 442.377 203.523 442.377 213.039V355.953C442.377 365.494 445.699 373.572 452.346 380.219C458.993 386.866 466.973 390.189 476.276 390.189C485.799 390.189 493.889 386.866 500.536 380.219C507.183 373.572 510.505 365.494 510.505 355.953V213.039C510.505 203.522 507.183 195.487 500.536 188.945C493.889 182.415 485.799 179.141 476.276 179.141Z" fill="white"/>
</g>
<defs>
<clipPath id="clip0">
<rect width="553.048" height="553.048" fill="white"/>
</clipPath>
</defs>
</svg>
