<svg width="512" height="512" viewBox="0 0 512 512" fill="none" xmlns="http://www.w3.org/2000/svg">
<path d="M185.254 512C109.053 511.561 46.0215 356.009 46.0215 276.79C46.0215 147.386 143.096 119.056 180.508 119.056C197.368 119.056 215.371 125.677 231.25 131.536C242.354 135.623 253.838 139.842 260.225 139.842C264.048 139.842 273.057 136.253 281.011 133.104C297.974 126.351 319.082 117.958 343.662 117.958C343.706 117.958 343.765 117.958 343.808 117.958C362.162 117.958 417.812 121.986 451.269 172.23L459.106 184.007L447.827 192.518C431.714 204.676 402.314 226.854 402.314 270.785C402.314 322.816 435.61 342.826 451.606 352.45C458.667 356.698 465.976 361.078 465.976 370.658C465.976 376.913 416.054 511.224 343.559 511.224C325.82 511.224 313.281 505.892 302.221 501.19C291.03 496.429 281.376 492.328 265.424 492.328C257.338 492.328 247.113 496.151 236.288 500.209C221.495 505.73 204.751 512 185.752 512H185.254Z" fill="white"/>
<path d="M351.343 0C353.231 68.076 304.546 115.304 255.918 112.342C247.905 58.015 304.54 0 351.343 0Z" fill="white"/>
</svg>
