<svg width="56" height="48" viewBox="0 0 56 48" fill="none" xmlns="http://www.w3.org/2000/svg">
<path d="M19.8433 0.103774C25.2946 -0.0234278 30.7656 -0.05691 36.2169 0.13724C37.4085 3.04949 38.5607 5.98184 39.726 8.90748C43.5445 8.94095 47.3762 8.78697 51.1947 8.95434C53.7229 8.95434 55.9218 11.2841 55.9086 13.8416C56.0074 16.5329 56.0732 19.2442 55.8494 21.9356C55.1713 23.1942 53.6373 23.6294 52.63 24.5867C52.0901 32.2724 52.867 40.025 52.2481 47.7173C50.5956 47.9382 48.9365 48.0119 47.2775 47.9985C33.4254 47.9516 19.58 48.0253 5.72793 47.965C5.01031 47.8579 3.52899 47.8847 3.65408 46.7734C3.37756 39.3689 3.64091 31.951 3.53557 24.5466C2.40976 23.857 1.20495 23.2812 0.250322 22.3506C-0.151281 19.5455 0.039645 16.6735 0.0857306 13.8483C0.112065 11.177 2.48877 8.80033 5.1354 8.92084C8.84859 8.84719 12.5684 8.91417 16.2881 8.90748C17.4732 5.97515 18.5595 2.99594 19.8433 0.103774ZM20.212 8.90077C25.4328 8.88738 30.6537 8.92085 35.868 8.88737C35.1767 7.09985 34.4722 5.31906 33.7217 3.55832C29.89 3.55832 26.0517 3.56498 22.22 3.56498C21.5419 5.33911 20.844 7.10656 20.212 8.90077ZM3.91084 12.7503C3.39073 15.2675 3.52899 17.8517 3.58824 20.4092C8.90126 23.4352 14.7278 25.4236 20.7387 26.401C21.0284 25.1022 20.9757 22.8662 22.9113 23.1407C26.9208 23.2009 31.0026 22.6988 34.9528 23.5959C34.9726 24.5265 34.9923 25.4637 35.0121 26.4077C41.1283 25.5374 47.0339 23.4486 52.4259 20.4025C52.4391 18.22 52.6036 16.024 52.314 13.8616C52.2679 12.6699 50.905 12.4156 49.9702 12.4624C38.0932 12.4356 26.2163 12.4758 14.3328 12.4557C10.8632 12.5026 7.36726 12.2683 3.91084 12.7503ZM7.05125 26.2337C7.05125 32.2992 6.99858 38.3714 7.06442 44.4369C21.0284 44.4168 34.9857 44.4034 48.9431 44.4435C48.9695 38.378 49.0221 32.3125 48.9365 26.2537C44.486 28.068 39.8379 29.3735 35.0911 30.0832C34.9594 31.2816 34.7882 32.4799 34.5644 33.6649C30.1863 33.6984 25.7357 34.1068 21.3905 33.4507C21.0613 32.3527 21.0152 31.2012 20.8835 30.0832C16.1367 29.3601 11.4886 28.0881 7.05125 26.2337ZM24.5111 26.6688C24.5045 27.8471 24.498 29.0321 24.498 30.2171C26.8023 30.197 29.1065 30.2037 31.4174 30.2506C31.4635 29.0589 31.5096 27.8672 31.5557 26.6755C29.2119 26.6487 26.8615 26.6353 24.5111 26.6688Z" fill="#830900"/>
</svg>
