<svg width="55" height="48" viewBox="0 0 55 48" fill="none" xmlns="http://www.w3.org/2000/svg">
<path d="M1.99905 35.6937C1.99905 36.6048 2.361 37.4786 3.00527 38.1229C3.64954 38.7672 4.52335 39.1291 5.43449 39.1291H26.0471L32.918 46V18.5165C32.918 17.6054 32.556 16.7315 31.9118 16.0873C31.2675 15.443 30.3937 15.0811 29.4825 15.0811H5.43449C4.52335 15.0811 3.64954 15.443 3.00527 16.0873C2.361 16.7315 1.99905 17.6054 1.99905 18.5165V35.6937Z" stroke="black" stroke-width="3" stroke-linecap="round" stroke-linejoin="round"/>
<path d="M53.1338 22.6126C53.1338 23.5237 52.7718 24.3976 52.1275 25.0418C51.4833 25.6861 50.6095 26.048 49.6983 26.048H29.0857L22.2148 32.9189V5.43544C22.2148 4.5243 22.5768 3.65048 23.2211 3.00622C23.8653 2.36195 24.7391 2 25.6503 2H49.6983C50.6095 2 51.4833 2.36195 52.1275 3.00622C52.7718 3.65048 53.1338 4.5243 53.1338 5.43544V22.6126Z" stroke="black" stroke-width="3" stroke-linecap="round" stroke-linejoin="round"/>
</svg>
