<svg width="20" height="20" viewBox="0 0 20 20" fill="none" xmlns="http://www.w3.org/2000/svg">
<g clip-path="url(#clip0)">
<path d="M15 6.66699H15.8333C16.7174 6.66699 17.5652 7.01818 18.1904 7.6433C18.8155 8.26842 19.1667 9.11627 19.1667 10.0003C19.1667 10.8844 18.8155 11.7322 18.1904 12.3573C17.5652 12.9825 16.7174 13.3337 15.8333 13.3337H15" stroke="#444444" stroke-width="2" stroke-linecap="round" stroke-linejoin="round"/>
<path d="M1.66602 6.66699H14.9993V14.167C14.9993 15.051 14.6482 15.8989 14.023 16.524C13.3979 17.1491 12.5501 17.5003 11.666 17.5003H4.99935C4.11529 17.5003 3.26745 17.1491 2.64233 16.524C2.01721 15.8989 1.66602 15.051 1.66602 14.167V6.66699Z" stroke="#444444" stroke-width="2" stroke-linecap="round" stroke-linejoin="round"/>
<path d="M5 0.833008V3.33301" stroke="#444444" stroke-width="2" stroke-linecap="round" stroke-linejoin="round"/>
<path d="M8.33398 0.833008V3.33301" stroke="#444444" stroke-width="2" stroke-linecap="round" stroke-linejoin="round"/>
<path d="M11.666 0.833008V3.33301" stroke="#444444" stroke-width="2" stroke-linecap="round" stroke-linejoin="round"/>
</g>
<defs>
<clipPath id="clip0">
<rect width="20" height="20" fill="white"/>
</clipPath>
</defs>
</svg>
