<svg width="1039" height="1038" viewBox="0 0 1039 1038" fill="none" xmlns="http://www.w3.org/2000/svg">
<g opacity="0.1">
<path d="M509.55 0H529.46C570.51 0.97 611.5 6.42 651.25 16.83C722.8 35.45 790.19 69.76 847.48 116.49C897.51 157.17 939.88 207.23 971.68 263.33C999.77 312.8 1019.65 366.93 1030.07 422.87C1035.49 451.44 1038.27 480.48 1039 509.54V529.45C1037.82 575.34 1031.12 621.15 1018.08 665.19C998.26 733.05 964.15 796.64 918.91 850.93C875.39 903.17 821.57 946.79 761.39 978.44C689.56 1016.41 608.67 1036.78 527.46 1038H507.56C502.38 1037.84 497.21 1037.5 492.04 1037.26C434.77 1034.29 377.98 1021.81 324.83 1000.23C264.76 975.97 209.34 940.26 162.36 895.66C109.75 845.9 67.6598 785.03 39.8898 718.14C6.49981 638.3 -6.02019 549.98 3.14981 463.97C10.2398 396.1 31.0298 329.72 63.8798 269.92C98.9998 205.8 147.88 149.3 206.17 105.18C265.6 60.07 334.9 28 407.81 12.08C441.22 4.69 475.36 0.9 509.55 0ZM366.02 202.72C326.25 202.68 286.48 202.75 246.71 202.68C246.84 232.78 246.73 262.89 246.76 293C246.43 311.68 249.35 330.92 258.46 347.46C261.63 353.41 266.3 358.32 270.61 363.43C325.62 428.06 380.65 492.69 435.65 557.33C441.05 563.02 447.69 568.01 455.49 569.73C464.43 571.84 473.47 566.83 479.09 560.08C520.91 515.9 562.64 471.65 604.4 427.42C608.71 423.06 612.86 418.54 616.95 413.98C621.22 409.17 623.99 402.63 623.11 396.13C622.02 388.84 617.84 382.41 612.86 377.15C609.27 373.66 605.12 370.84 601.22 367.74C538.86 319.42 476.48 271.12 414.13 222.81C403.96 215.27 393.47 207.69 381.42 203.47C376.47 201.52 371.15 202.84 366.02 202.72ZM463.29 203.16C460.5 203.97 457.55 206.55 458.24 209.73C459 213.41 462.04 215.98 464.75 218.33C523.13 263.63 581.57 308.87 639.94 354.18C644.98 357.63 651.52 359.12 657.5 357.64C667.53 355.59 675.84 348.98 682.89 341.88C698.07 325.42 713.7 309.37 728.94 292.96C734.45 287.52 740.38 281.86 742.4 274.1C744.54 267.85 742.1 260.92 737.92 256.11C732.36 249.53 724.38 245.94 716.92 242C699.25 232.12 680.61 224.02 661.53 217.27C638.77 209.47 615.09 203.77 590.99 202.75C549.98 202.63 508.98 202.78 467.97 202.67C466.4 202.72 464.79 202.64 463.29 203.16ZM772.29 301.25C762.4 304.4 756.13 313.14 749.2 320.27C734.76 336.15 720.12 351.85 705.66 367.71C701.21 373.16 698.08 379.91 697.78 387.01C698.19 395.49 703.21 403.18 709.88 408.2C761.01 447.07 812.16 485.91 863.29 524.79C865.82 526.63 868.12 528.92 871.05 530.15C874.19 530.51 877.36 530.19 880.53 530.34C882.02 490.16 875.34 449.79 862.22 411.83C848.99 373.95 828.36 338.46 800.69 309.3C793.5 301.96 782.33 297.81 772.29 301.25ZM251.19 404.9C247.1 407.78 247.09 413.47 246.76 417.97C246.77 539 246.75 660.02 246.77 781.05C247.03 785.09 247.71 789.37 250.07 792.78C252.19 795.6 256.32 794.64 258.85 792.94C263.87 789.7 267.68 784.96 271.73 780.64C314.44 735.05 357.22 689.53 399.91 643.92C406.98 636.51 414.58 629.23 419.08 619.87C422.29 613.52 423.77 606.07 421.97 599.09C420.48 593.33 416.29 588.88 412.51 584.49C366.89 530.47 321.27 476.45 275.64 422.43C270.61 416.45 265.77 409.98 258.85 406.04C256.58 404.76 253.71 403.71 251.19 404.9ZM658.36 425.6C652.53 426.74 647.45 430.29 643.78 434.88C594.75 487.14 545.52 539.21 496.55 591.53C490.12 597.98 487.34 607.87 490.05 616.66C492.31 625.67 499.38 632.05 505.04 638.99C552.05 694.63 599.12 750.21 646.13 805.84C650.13 810.23 655.58 813.21 661.39 814.37C670.63 816.57 680.17 814.03 688.95 811.09C701.41 806.85 712.15 799.09 723.41 792.49C764.86 766.89 801.06 732.69 828.43 692.35C842.87 670.97 855.15 648 863.59 623.58C866.31 614.93 869.65 606.26 869.66 597.07C870.2 585.81 866.59 573.62 857.7 566.21C800.71 522.23 743.83 478.11 686.84 434.12C678.85 427.98 668.6 423.47 658.36 425.6ZM450.3 648.1C441.9 650.24 435.18 656.27 429.69 662.72C422.05 672.35 413.03 680.75 404.88 689.94C367.72 729.42 330.72 769.06 293.6 808.59C289.7 812.77 284.98 816.62 283.06 822.21C282.02 825.33 281.77 829.24 284.15 831.85C286.77 834.39 290.51 835.29 294.05 835.57C390.04 835.49 486.05 835.57 582.05 835.53C588.51 835.48 595.26 835.2 601.15 832.25C605.11 830.28 608.24 825.71 607 821.18C604.73 811.48 597.26 804.4 590.68 797.42C553.99 753.44 517.38 709.38 480.72 665.37C475.97 659.79 471.74 653.34 465.03 649.93C460.58 647.44 455.22 646.92 450.3 648.1Z" fill="white"/>
</g>
</svg>
