<svg width="671" height="288" viewBox="0 0 671 288" fill="none" xmlns="http://www.w3.org/2000/svg">
<path d="M366.408 0.588323C384.097 -1.92714 402.746 3.72388 416.071 15.6226C419.722 19.5772 423.758 23.2509 426.636 27.8606C433.492 38.6362 437.329 51.4943 436.639 64.3173C435.949 83.2827 425.981 101.768 410.245 112.45C395.902 122.875 376.925 125.695 359.821 121.799C344.624 118.277 331.38 108.262 322.734 95.4272C317.376 87.6234 314.732 78.322 313.152 69.0908C311.725 54.9574 314.79 40.2625 322.629 28.3169C332.222 13.2826 348.73 2.85809 366.408 0.588323ZM368.408 12.2765C347.326 14.5579 329.286 31.862 325.589 52.6526C323.319 65.0544 325.811 78.3571 332.772 88.8987C341.933 103.325 359.049 112.369 376.153 111.608C389.923 111.479 403.354 105.033 412.433 94.7369C419.862 86.0088 424.694 74.777 424.647 63.2058C425.454 46.3698 416.633 29.522 402.582 20.3025C392.591 13.7389 380.307 10.6619 368.408 12.2765Z" fill="#E3C7CE"/>
<path d="M82.1846 165.064C101.032 165.72 119.927 164.702 138.774 165.591C120.535 166.539 102.249 165.392 84.0097 166.211C85.1445 167.533 86.3729 168.972 88.3267 168.785C104.519 169.382 120.781 168.223 136.949 169.382C134.445 170.049 131.848 170.411 129.263 170.353C117.949 170.13 106.636 170.341 95.3229 170.13C92.6204 170.013 89.9412 170.575 87.4961 171.757C96.2939 173.137 105.209 172.236 114.065 172.47C120.827 172.669 127.73 171.687 134.364 173.418C119.424 174.436 104.425 173.266 89.4732 174.085C86.5718 171.488 83.8225 168.645 82.1846 165.064Z" fill="#E3C7CE"/>
<path d="M370.712 178.812C376.351 177.642 380.762 172.271 386.904 173.839C385.325 175.98 383.827 178.203 381.885 180.028C379.288 182.322 375.848 183.246 373.017 185.176C371.215 189.189 370.899 193.67 369.987 197.929C374.55 195.706 379.569 194.548 384.658 195.133C381.967 198.877 378.609 202.001 375.228 205.089C373.859 206.248 374.585 208.307 374.292 209.84C377.123 209.652 380.259 209.664 382.049 207.078C382.341 208.482 382.657 209.886 382.973 211.29C382.774 214.227 384.026 216.848 385.722 219.176C383.78 222.031 381.546 224.663 379.136 227.12C377.065 227.12 374.994 227.132 372.935 227.144C372.643 228.77 372.35 230.384 372.058 232.022C372.853 232.046 373.66 232.069 374.468 232.104C375.111 232.128 376.41 232.163 377.053 232.186C382.891 232.432 388.858 231.66 394.591 233.075C395.772 236.41 392.508 239.23 391.432 242.225C391.525 241.254 391.701 239.311 391.783 238.34C371.239 238.282 350.683 238.165 330.139 238.411C330.221 239.393 330.408 241.347 330.502 242.33C328.805 239.148 326.805 235.895 327.238 232.128C333.415 232.104 339.697 232.643 345.734 230.958C346.179 231.332 347.056 232.058 347.501 232.42L347.15 230.595C348.589 231.367 350.075 232.619 351.83 232.303C354.193 230.022 356.369 226.898 356.451 223.54C353.538 218.568 349.7 213.736 350.519 207.558C355.035 209.173 357.434 213.42 359.598 217.386C360.756 215.21 361.926 213.034 363.096 210.857C357.293 207.055 352.953 201.088 352.555 193.998C357.293 195.683 360.85 199.263 363.108 203.709C366.653 201.31 367.179 196.935 368.115 193.097C365.295 190.781 362.3 188.581 360.031 185.703C358.159 183.363 358.007 180.251 357.469 177.443C362.336 179.268 365.986 183.035 369.098 187.072C369.601 184.311 370.139 181.561 370.712 178.812ZM367.706 203.51C369.285 205.101 370.911 206.634 372.584 208.143C372.549 206.669 372.479 205.195 372.374 203.732C370.818 203.592 369.262 203.51 367.706 203.51ZM365.178 213.56C366.875 212.566 368.548 211.548 370.209 210.495C369.297 210.027 367.472 209.067 366.559 208.599C366.009 210.226 365.553 211.875 365.178 213.56ZM368.677 216.661C369.729 218.322 370.923 219.901 372.245 221.376C372.409 219.679 372.561 217.983 372.701 216.298C371.695 216.391 369.683 216.567 368.677 216.661ZM377.311 217.409C376.585 217.632 375.146 218.076 374.421 218.31C374.117 220.533 373.813 222.756 373.52 224.991C374.83 224.055 376.152 223.119 377.463 222.183C379.03 221.691 380.598 221.2 382.166 220.72C381.335 218.767 379.803 214.555 377.311 217.409ZM356.17 232.385C359.832 232.479 363.494 232.35 367.156 232.093C365.518 229.343 364.09 226.477 363.19 223.411C366.36 224.535 368.864 226.804 371.215 229.121C371.204 227.366 371.496 225.576 371.133 223.856C368.513 221.902 365.787 220.089 363.576 217.655C360.721 222.358 358.299 227.319 356.17 232.385Z" fill="#E3C7CE"/>
<path d="M367.857 15.4707C368.419 15.693 369.554 16.1376 370.115 16.3482C371.777 32.2717 373.438 48.2302 373.918 64.2473C385.067 69.3835 396.123 74.7889 407.109 80.2293C409.004 82.1715 405.693 82.6044 404.535 81.5865C393.573 76.5087 382.774 71.0917 371.765 66.1193C370.08 49.2715 369.016 32.3653 367.857 15.4707Z" fill="#814F43"/>
<path d="M211.216 205.933C220.622 204.084 230.239 203.757 239.774 203.043C239.774 210.519 239.809 218.007 239.727 225.483C235.41 224.746 231.151 223.728 226.963 222.488C222.307 221.412 216.433 219.739 212.35 223.096C207.823 230.655 205.998 239.488 201.412 247.046C198.452 252.206 194.86 256.991 190.765 261.308C188.905 261.46 187.045 261.612 185.196 261.846C186.074 259.483 186.951 257.12 187.84 254.756C188.262 253.645 188.671 252.545 189.104 251.457C189.56 250.24 190.016 249.035 190.473 247.83C191.362 245.443 192.216 243.033 193.117 240.658L193.175 240.506C196.311 232.316 198.744 223.88 200.99 215.41C202.184 210.531 206.267 206.752 211.216 205.933Z" fill="#830900"/>
<path d="M93.2871 199.402C103.325 199.543 113.539 201.122 122.746 205.311C125.905 206.879 130.432 209.628 128.806 213.84C126.373 221.655 121.986 228.722 117.657 235.613C124.875 237.684 132.433 236.549 139.815 236.842C132.117 237.216 124.361 236.643 116.709 237.614L114.919 239.966C140.997 240.808 167.098 239.942 193.176 240.504L193.117 240.656C169.075 240.211 145.022 240.527 120.979 240.457C118.979 241.873 116.697 241.299 114.545 240.726C113.141 242.984 111.737 245.254 110.275 247.477C110.005 247.886 109.456 248.717 109.186 249.127C107.677 251.408 106.121 253.678 104.577 255.936C103.583 257.363 102.588 258.779 101.594 260.206C100.166 260.148 98.739 260.101 97.3117 260.054C98.2242 255.702 99.4058 251.42 100.447 247.103C103.419 236.549 104.273 224.463 112.649 216.449C109.292 218.239 105.829 219.865 102.249 221.164C99.3357 222.182 96.3523 223.024 93.3924 223.878C93.2403 215.724 93.3339 207.569 93.2871 199.402Z" fill="#FF4840"/>
<path d="M230.064 141.631C233.492 139.279 237.481 135.09 241.962 137.606C246.934 139.478 249.496 144.415 249.145 149.598C248.841 150.16 248.221 151.295 247.917 151.868C247.659 152.336 247.133 153.272 246.876 153.74C246.057 152.71 245.249 151.681 244.442 150.663C244.407 149.048 244.384 147.434 244.349 145.819C243.623 146.404 242.196 147.562 241.482 148.136C239.645 146.814 237.82 145.515 235.96 144.228C234.954 145.199 233.948 146.17 232.942 147.141C231.854 148.159 230.777 149.177 229.689 150.207C229.584 149.446 229.362 147.913 229.245 147.153C228.449 147.832 226.846 149.177 226.039 149.856C227.361 147.106 228.812 144.415 230.064 141.631Z" fill="#003C77"/>
<path d="M43.0381 113.085C43.8336 112.863 45.4247 112.395 46.2203 112.172C63.7693 111.798 81.33 112.172 98.8907 112.02C103.793 111.938 108.718 112.032 113.573 112.816C111.14 113.81 108.543 114.43 105.899 114.349C90.3151 114.138 74.7433 114.454 59.1715 114.395C53.7781 114.302 48.1741 115.168 43.0381 113.085Z" fill="#F4E2E2"/>
<path d="M39.9375 117.972C43.0027 115.316 47.2145 116.029 50.9466 115.959C71.1513 116.041 91.3677 115.971 111.584 116.088C111.608 116.603 111.654 117.621 111.678 118.135C93.38 118.276 75.0706 118.252 56.7728 118.381C51.1572 118.369 45.5298 118.592 39.9375 117.972Z" fill="#F3E1E1"/>
<path d="M26.917 130.935L28.2039 130.9C57.1831 130.748 86.1624 130.538 115.142 131.017C114.568 133.1 112.451 133.404 110.614 133.381C88.3852 133.404 66.1565 133.521 43.9278 133.463C38.6163 133.369 33.258 133.907 27.9933 133.088C27.7242 132.55 27.1861 131.474 26.917 130.935Z" fill="#F3E1E1"/>
<path d="M152.72 116.02C158.569 115.704 164.431 115.762 170.28 115.844C170.292 116.394 170.327 117.505 170.351 118.055C164.875 117.938 159.4 117.903 153.913 117.927C153.621 117.447 153.024 116.499 152.72 116.02Z" fill="#FBBEBD"/>
<path d="M497.872 121.012C503.511 121.176 509.044 119.561 514.707 120.158C518.708 119.807 522.814 117.572 526.465 120.45C525.704 121.585 524.944 122.732 524.183 123.866C525.154 125.762 527.892 127.727 526.465 130.091C525.388 132.829 524.008 137.134 522.873 139.837C523.025 139.427 522.709 140.258 522.873 139.837C522.674 140.644 522.428 142.434 522.241 143.241C522.557 144.049 522.569 145.874 522.885 146.681L522.346 146.857C520.72 147.512 519.117 148.214 517.491 148.834C514.719 148.588 511.981 148.109 509.232 147.793C508.623 146.318 508.027 144.856 507.442 143.394C484.757 143.3 462.072 143.405 439.375 143.3C462.13 143.043 484.874 143.277 507.629 143.241C507.547 142.399 507.395 140.691 507.313 139.837C484.651 139.79 461.99 139.813 439.328 139.837C462.095 139.509 484.874 139.837 507.64 139.685C506.857 135.824 505.991 131.974 505.254 128.114C484.055 128.16 462.844 128.149 441.645 128.114C460.387 127.915 479.129 128.02 497.883 128.055C501.147 127.786 506.143 129.401 506.424 124.592C485.271 124.65 464.131 124.662 442.978 124.545C462.809 124.323 482.651 124.533 502.481 124.498C505.032 124.802 507.091 123.504 508.611 121.48C487.483 120.591 466.318 121.48 445.178 121C462.738 121 480.311 120.965 497.872 121.012ZM510.752 131.05C509.009 133.343 509.816 136.385 509.84 139.041C511.431 138.678 513.01 138.304 514.602 137.918C514.602 138.69 514.613 140.235 514.613 141.007C515.35 140.106 516.041 139.17 516.707 138.21C518.217 138.035 519.738 137.883 521.27 137.731C521.095 134.946 520.872 132.162 520.568 129.389C517.316 129.95 513.794 129.67 510.752 131.05Z" fill="#744956"/>
<path d="M36.9082 120.98C61.781 120.957 86.6654 120.805 111.538 121.039C86.6654 121.132 61.781 121.378 36.9082 120.98Z" fill="#B56D81"/>
<path d="M531.591 175.035C533.58 177.925 535.241 181.025 536.563 184.278C537.745 184.36 538.927 184.454 540.12 184.547C536.189 184.512 532.246 184.489 528.315 184.489C529.345 181.318 530.421 178.159 531.591 175.035Z" fill="#B56D81"/>
<path d="M153.187 120.826C155.199 120.031 158.954 119.551 160.358 121.212C158.358 122.02 154.532 122.558 153.187 120.826Z" fill="#FA8E89"/>
<path d="M162.44 120.876C164.71 119.963 167.623 119.963 169.893 120.876C168.536 122.373 163.809 122.373 162.44 120.876Z" fill="#FB7D80"/>
<path d="M32.9883 124.665C35.0123 124.138 37.0713 123.74 39.1772 123.776C60.6455 123.893 82.1254 123.822 103.605 123.846C106.507 123.846 109.397 123.998 112.275 124.372C108.332 125.683 104.132 125.191 100.06 125.25C83.272 125.238 66.4951 125.285 49.7183 125.261C44.1377 125.238 38.5104 125.753 32.9883 124.665Z" fill="#E9D3D5"/>
<path d="M153.199 124.713C158.721 124.935 164.267 124.923 169.789 124.701C169.859 125.04 169.976 125.707 170.034 126.035C164.372 126.14 158.721 126.093 153.059 125.93C153.094 125.625 153.164 125.017 153.199 124.713Z" fill="#FA9F85"/>
<path d="M232.941 147.14C233.948 146.169 234.954 145.198 235.96 144.227C237.82 145.514 239.645 146.812 241.482 148.134C242.196 147.561 243.623 146.403 244.348 145.818C244.383 147.432 244.407 149.047 244.442 150.661C245.249 151.679 246.056 152.709 246.875 153.739C247.133 153.271 247.659 152.335 247.917 151.867C248.63 153.06 249.344 154.253 250.069 155.447C248.806 155.786 247.554 156.114 246.314 156.488C243.447 155.435 240.429 154.85 237.609 153.715C235.597 151.89 234.392 149.386 232.941 147.14Z" fill="#FA9F85"/>
<path d="M121.61 128.843C125.647 128.422 129.706 128.41 133.743 128.738C132.467 131.347 129.39 130.832 126.992 130.89C125.015 130.82 122.616 130.972 121.61 128.843Z" fill="#FCBFC1"/>
<path d="M510.5 130.5C513.542 129.119 517.317 129.952 520.569 129.391C520.873 132.163 521.095 134.948 521.271 137.733C519.738 137.885 518.217 138.037 516.708 138.212C516.041 139.172 515.351 140.108 514.614 141.009C514.614 140.236 514.602 138.692 514.602 137.92C513.011 138.306 511.432 138.68 509.841 139.043C509.817 136.387 508.757 132.793 510.5 130.5Z" fill="#FF9F83"/>
<path d="M25.5007 134.772C27.6065 133.988 29.9113 134.187 32.1108 134.117C59.768 134.375 87.4369 133.942 115.082 134.363C115.071 136.445 115.047 138.528 115.047 140.611C92.8654 141.043 70.6835 140.622 48.5015 140.798C39.7855 140.622 31.0695 141.184 22.377 140.54C23.3012 138.575 23.9447 136.364 25.5007 134.772Z" fill="#F7E9E8"/>
<path d="M118.183 135.186C124.114 133.782 130.256 134.741 136.281 134.554L136.27 135.701C130.245 135.619 124.173 136.11 118.183 135.186Z" fill="#F9837E"/>
<path d="M127.647 139.702C130.561 138.591 133.907 138.474 136.796 139.702C133.766 140.1 130.689 140.1 127.647 139.702Z" fill="#FF6C5A"/>
<path d="M324.196 172.32C331.531 176.064 330.724 185.12 332.912 191.871C335.567 188.209 338.656 184.769 342.926 182.991C343.277 189.297 338.305 193.602 333.649 196.89C334.631 201.207 335.954 205.443 337.545 209.573C338.89 204.109 342.166 199.125 347.84 197.487C346.775 203.442 343.874 209.175 338.27 211.971C339.253 214.288 340.235 216.604 341.207 218.932C342.903 214.896 345.477 211.269 349.162 208.812C350.168 214.498 347.325 219.506 343.663 223.577C344.88 225.882 346.073 228.21 347.15 230.597L347.501 232.422C347.056 232.06 346.179 231.334 345.734 230.96C342.716 226.678 340.551 221.892 338.247 217.213C332.14 218.453 325.927 216.44 321.563 212.065C327.202 210.041 332.877 211.936 337.591 215.165C336.41 212.205 335.263 209.233 334.117 206.262C328.232 206.133 323.026 203.196 319.118 198.937C324.008 197.978 328.852 199.218 332.888 202.061C331.683 197.545 331.122 192.865 329.753 188.408C328.29 185.448 325.471 183.283 324.535 180.054C323.938 177.515 324.172 174.883 324.196 172.32Z" fill="#FF6C5A"/>
<path d="M21.371 142.391C35.925 142.064 50.4906 142.356 65.0563 142.228C70.6953 142.333 76.4631 141.596 81.9618 143.246C77.8436 144.731 73.4096 147.188 68.9756 145.387C64.0852 143.62 58.376 141.409 53.6026 144.755C42.8744 143.655 32.0759 144.79 21.3242 144.158L21.371 142.391Z" fill="#FAEEED"/>
<path d="M81.9614 143.243C93.029 143.138 104.178 143.091 115.281 143.208C105.512 143.699 95.7198 143.056 85.9509 143.652C87.4601 144.822 88.9927 145.957 90.5487 147.045C98.7617 146.402 107.01 146.671 115.234 146.776C107.384 147.057 99.5221 146.729 91.6719 147.045C91.6017 149.818 91.3794 152.603 90.6189 155.294C89.8585 153.983 89.1097 152.673 88.361 151.363C86.7699 152.24 85.1904 153.129 83.5993 154.007C82.5113 153.445 81.4233 152.884 80.3352 152.322C79.5514 154.346 78.7675 156.382 77.8433 158.347C74.8131 157.528 71.8415 156.288 68.6827 156.089C65.3718 157.084 62.7277 159.482 59.9082 161.378C63.9211 161.846 67.9573 162.372 72.017 162.29C66.9629 163.261 61.7918 160.699 56.8079 162.431C52.6663 163.671 48.3025 163.355 44.0907 164.092C45.0033 165.402 47.0974 165.309 48.5248 165.426C55.1817 165.496 61.8503 165.157 68.5072 165.566C49.3671 165.73 30.2387 165.753 11.0986 165.519C20.5985 165.133 30.1217 165.625 39.6216 165.356C41.5988 165.461 42.9208 164.15 43.4239 162.349C33.07 161.471 22.6693 162.571 12.3037 161.939C20.8325 161.822 29.373 162.056 37.9018 161.67C35.9363 158.85 33.4677 155.797 34.1463 152.1C34.4973 150.473 34.6728 147.677 36.9307 147.759C41.4584 147.888 46.454 149.748 50.4435 146.659C51.4964 146.027 52.5493 145.384 53.6023 144.752C58.3756 141.406 64.0849 143.617 68.9752 145.384C73.4092 147.186 77.8433 144.729 81.9614 143.243Z" fill="#754956"/>
<path d="M34.4268 274.62C40.2998 274 46.208 274.175 52.1044 274.292C117.983 274.047 183.874 274.327 249.753 274.187C254.854 274.187 260.013 273.941 265.067 274.795C254.783 274.093 244.418 274.304 234.122 274.714C198.007 274.023 161.879 274.643 125.752 274.409C102.142 274.585 78.5215 274.058 54.924 274.725C48.1033 274.339 41.2592 274.257 34.4268 274.62Z" fill="#754956"/>
<path d="M118.533 143.618C124.57 143.079 130.642 143.243 136.691 143.231C130.736 144.401 124.535 144.366 118.533 143.618Z" fill="#FE4741"/>
<path d="M246.313 156.487C247.554 156.112 248.805 155.785 250.069 155.445C253.473 157.224 257.065 159.166 259.031 162.617C263.406 169.743 262.868 178.576 261.792 186.532C261.3 191.153 259.709 196.313 262.564 200.513C258.235 204.69 252.034 204.222 246.571 203.227C245.904 203.064 244.57 202.736 243.903 202.561C245.062 196.793 242.184 191.329 240.417 185.994C236.416 189.141 232.321 192.815 227.033 193.388C215.837 194.488 204.535 194.242 193.339 193.236C202.113 191.68 210.724 189.398 219.346 187.21C223.266 186.204 227.349 184.636 229.677 181.115C233.374 175.616 237.118 170.047 239.352 163.764C240.464 160.418 243.178 157.961 246.313 156.487Z" fill="#FE4741"/>
<path d="M12.3037 161.942C13.8597 156.267 16.34 150.897 19.2999 145.819C29.6655 146.112 40.1832 144.895 50.4435 146.662C46.454 149.75 41.4584 147.89 36.9308 147.761C34.6728 147.68 34.4973 150.476 34.1463 152.102C33.4678 155.799 35.9363 158.853 37.9018 161.673C29.373 162.059 20.8325 161.825 12.3037 161.942Z" fill="#F6E8E7"/>
<path d="M461.488 152.303C475.866 150.267 490.408 150.688 504.857 149.916C500.751 150.911 496.328 151.507 492.772 153.941C489.847 157.825 489.11 162.844 487.823 167.431C486.091 175.504 483.904 183.635 483.868 191.954C483.67 196.552 488.993 198.154 492.304 199.956C489.765 202.156 487.168 204.285 484.664 206.508C469.139 205.947 453.602 206.45 438.077 206.227C434.942 206.227 429.888 206.274 429.689 210.509C430.204 215.938 432.637 221.227 436.252 225.31C438.744 228.258 442.897 227.931 446.384 228.129C455.427 228.246 464.459 228.34 473.503 228.258C473.69 228.785 474.064 229.826 474.252 230.352C460.365 230.809 446.36 229.37 432.544 231.125C426.811 221.905 423.044 211.668 418.656 201.781C417.405 198.388 415.24 194.785 416.586 191.076C419.265 182.453 423.289 174.205 428.437 166.775C431.105 162.973 434.193 159.112 438.627 157.334C445.881 154.327 453.754 153.344 461.488 152.303Z" fill="#B16E80"/>
<path d="M504.857 149.914C507.185 149.493 509.502 149.048 511.842 148.627C512.707 148.966 514.439 149.645 515.305 149.984C516.1 149.715 517.68 149.189 518.475 148.919C522.968 149.294 527.402 150.183 531.871 150.815C535.229 152.254 539.16 153.915 540.037 157.893C543.512 168.528 545.91 179.608 546.811 190.758C547.747 194.83 543.874 197.123 540.856 198.737C538.633 199.825 536.363 200.797 534.106 201.768C536.036 196 538.142 190.29 540.119 184.545C538.926 184.452 537.744 184.358 536.562 184.276C535.24 181.024 533.579 177.923 531.59 175.033C530.42 178.157 529.344 181.316 528.314 184.487C519.563 184.475 510.812 184.522 502.061 184.44C501.277 181.433 500.528 178.415 499.312 175.56C496.106 177.292 495.673 181.48 494.117 184.452C493.24 184.452 491.485 184.475 490.607 184.475C492.468 190.208 494.574 195.859 496.469 201.58C495.065 201.066 493.673 200.516 492.304 199.954C488.993 198.152 483.67 196.549 483.869 191.951C483.904 183.633 486.092 175.501 487.823 167.429C489.11 162.842 489.847 157.823 492.772 153.939C496.328 151.505 500.751 150.908 504.857 149.914Z" fill="#830900"/>
<path d="M37.2936 183.538C38.0891 179.49 42.453 173.277 46.9455 176.343C47.2497 176.764 47.8697 177.606 48.1739 178.016L48.1271 180.262C53.228 181.058 58.4225 180.765 63.4181 179.642C63.617 179.864 64.0031 180.309 64.1903 180.531C58.8905 181.338 53.5205 180.777 48.1973 181.069C48.1622 192.956 48.8057 205.218 54.3161 216.04C55.6381 219.258 57.4515 222.709 60.973 223.926C70.7419 227.974 81.7159 225.938 91.8124 224.289C91.8007 226.242 91.8124 228.196 91.8124 230.15C86.4658 232.432 80.7799 233.73 74.9771 234.07C74.9888 234.865 74.9888 236.48 75.0005 237.287C75.0005 239.323 74.9888 241.37 74.942 243.418C73.7136 244.342 72.918 245.547 72.5553 247.021C72.6021 249.853 72.684 252.672 72.6957 255.515V255.738C72.6957 256.873 72.7074 259.142 72.7074 260.289C76.732 260.289 80.7682 260.149 84.7928 260.078C86.536 259.786 88.2207 260.546 89.1684 262.067C89.4842 264.337 88.7706 267.683 85.8223 267.379C82.5582 268.198 82.3009 264.419 81.2596 262.29C75.0707 262.219 68.87 262.196 62.6811 262.29C61.71 264.115 61.6866 267.59 58.9139 267.391C57.2877 267.321 55.8721 266.42 54.398 265.835C54.784 264.009 55.1935 262.184 55.6264 260.371C60.6688 260.055 65.7112 260.488 70.7536 260.5C70.8238 256.463 70.8121 252.415 70.7887 248.379C70.7887 247.466 70.7887 245.617 70.7887 244.705C70.1687 244.494 68.9402 244.073 68.3202 243.862C68.3436 241.78 68.4021 239.709 68.4372 237.626L68.4488 236.562C68.4371 235.86 68.4138 234.456 68.3904 233.754C58.1535 232.092 47.7293 227.611 42.0903 218.439C41.8095 218.006 41.5287 217.573 41.2596 217.14C40.9788 216.613 40.4056 215.572 40.1248 215.046C38.8262 212.051 37.8785 208.915 37.2234 205.721C36.6384 202.784 36.2874 199.801 36.2055 196.817C36.0885 192.36 36.2757 187.879 37.2936 183.538Z" fill="#003B77"/>
<path d="M262.564 200.518C264.927 203.677 266.507 207.303 267.033 211.223C266.027 215.774 265.08 221.027 260.926 223.847C255.1 227.626 247.8 226.597 241.26 225.988C241.119 218.5 241.061 211.001 241.342 203.513C243.085 203.419 244.828 203.326 246.571 203.232C252.035 204.226 258.235 204.694 262.564 200.518Z" fill="#830900"/>
<path d="M93.3914 223.88C96.3513 223.026 99.3347 222.184 102.248 221.166C100.072 224.407 97.1118 226.946 93.8828 229.087L93.2744 229.578C93.3329 227.671 93.3914 225.776 93.3914 223.88Z" fill="#003B77"/>
<path d="M531.87 150.813C545.079 149.819 558.346 151.527 571.425 153.294C578.562 154.592 586.447 155.563 592.086 160.594C597.105 165.578 600.545 171.861 603.973 177.98C604.909 179.817 605.751 181.701 606.523 183.631C607.623 187.106 609.331 190.487 609.542 194.173C608.723 198.525 606.079 202.433 606.091 206.961C605.997 216.789 606.067 226.616 606.172 236.444C605.704 236.152 604.769 235.555 604.301 235.263C605.038 226.441 604.652 217.549 604.406 208.716C600.545 215.899 597.866 223.668 593.42 230.536C581.335 230.021 569.249 230.501 557.164 230.255C557.258 229.787 557.456 228.851 557.55 228.383C566.488 227.974 575.462 228.605 584.365 227.763C588.506 227.389 591.127 223.68 592.917 220.31C594.52 217.011 596.123 213.419 595.842 209.663C595.234 206.657 591.665 206.364 589.185 206.282C575.86 206.189 562.534 206.329 549.22 206.247C546.588 203.568 543.698 201.169 540.855 198.736C543.874 197.121 547.746 194.828 546.81 190.756C545.909 179.606 543.511 168.527 540.036 157.892C539.159 153.914 535.228 152.252 531.87 150.813Z" fill="#B26E81"/>
<path d="M80.3351 152.325C81.4232 152.886 82.5112 153.448 83.5993 154.009C85.1904 153.132 86.7698 152.243 88.3609 151.365C89.1096 152.676 89.8584 153.986 90.6189 155.296C89.8467 156.092 89.1096 156.899 88.3024 157.671C85.7051 159.766 82.6165 161.111 79.6215 162.527C78.5335 162.071 77.4337 161.638 76.334 161.205C76.8488 160.257 77.3518 159.309 77.8432 158.35C78.7674 156.384 79.5513 154.349 80.3351 152.325Z" fill="#FD9F84"/>
<path d="M365.916 153.879C367.648 153.961 367.764 158.243 365.986 158.348C364.922 157.19 364.922 155.072 365.916 153.879Z" fill="#E1D2D3"/>
<path d="M59.9082 161.382C62.7277 159.487 65.3718 157.088 68.6827 156.094C71.8415 156.293 74.8131 157.533 77.8432 158.352C77.3519 159.311 76.8488 160.259 76.334 161.207C74.895 161.569 73.4677 161.99 72.017 162.295C67.9573 162.377 63.9211 161.85 59.9082 161.382Z" fill="#F8EBE8"/>
<path d="M356.568 164.594C358.183 166.115 360.265 171.087 356.486 170.643C355.819 168.654 356.264 166.594 356.568 164.594Z" fill="#E8DDDD"/>
<path d="M9.76586 168.492C12.913 167.896 16.1303 167.896 19.3125 167.954C35.0715 168.165 50.8305 167.767 66.5778 168.13C65.9811 171.441 65.361 174.74 64.7176 178.04C59.2072 178.145 53.6617 178.718 48.1747 178.016C47.8705 177.607 47.2505 176.764 46.9463 176.343C52.4216 175.583 57.932 176.366 63.4306 176.203C63.4189 175.828 63.4072 175.079 63.3955 174.717C45.1446 174.377 26.8586 175.22 8.64272 174.377L8.13965 173.055C10.6433 170.236 14.8551 171.921 18.1426 171.558C31.0469 171.207 43.9396 172.915 56.8322 171.885C59.5933 171.675 62.4362 172.81 65.1036 171.64C63.1616 171.148 61.1961 170.704 59.2306 170.271C56.0484 170.505 52.8662 170.903 49.6722 171.043C37.6336 169.92 25.5599 171.897 13.4979 171.043C11.9536 170.973 9.85945 170.376 9.76586 168.492Z" fill="#F1E0E0"/>
<path d="M145.184 194.079C151.104 185.69 154.895 175.804 161.821 168.176C157.48 178.074 150.882 186.767 145.839 196.302C158.966 196.15 172.093 196.419 185.219 196.162C179.873 186.837 173.485 178.027 169.191 168.164C171.005 169.978 172.572 172.037 173.859 174.271C177.978 181.35 182.084 188.452 186.612 195.284C197.55 195.179 208.489 195.144 219.417 195.319C226.541 196.314 233.736 196.384 240.92 196.372C241.212 198.42 241.552 200.456 241.996 202.491C242.476 202.503 243.424 202.55 243.903 202.562C244.57 202.737 245.904 203.065 246.571 203.228C244.827 203.322 243.084 203.416 241.341 203.509C241.06 210.997 241.119 218.497 241.259 225.985C247.799 226.593 255.099 227.623 260.926 223.844C265.079 221.024 266.027 215.771 267.033 211.219C268.87 204.48 270.917 197.648 270.683 190.593C270.695 186.392 270.098 182.099 271.174 177.98C271.724 175.746 274.403 174.751 276.357 175.944C281.224 178.448 282.23 184.567 282.722 189.505C283.424 201.076 281.914 213.969 273.619 222.791C267.746 229.331 259.101 232.221 250.677 233.718C250.677 236.912 250.677 240.095 250.548 243.289C249.589 244.388 248.817 245.617 248.232 246.951C248.29 249.794 248.396 252.637 248.454 255.48C250.782 255.503 253.111 255.538 255.439 255.585C253.099 255.655 250.747 255.702 248.407 255.749C248.419 256.872 248.443 259.13 248.443 260.253C253.052 260.312 257.673 259.856 262.259 260.3C263.535 261.236 264.307 262.675 265.301 263.892C263.78 265.191 262.704 267.823 260.317 267.414C257.404 267.929 257.463 264.009 256.281 262.336C251.356 262.207 246.442 262.231 241.528 262.324C241.166 264.407 240.826 266.525 240.487 268.619C239.925 266.162 239.294 263.717 238.51 261.33C237.621 263.178 236.907 265.132 235.889 266.911C234.099 267.273 232.262 267.297 230.449 267.425C230.507 265.062 228.858 261.611 231.748 260.359C234.38 259.856 237.082 260.183 239.762 260.218C239.785 259.072 239.832 256.779 239.855 255.632C232.894 255.807 225.933 255.854 218.984 255.562C219.756 253.362 220.575 251.174 221.324 248.975C221.078 249.782 220.563 251.385 220.317 252.181C226.787 251.865 233.269 251.888 239.75 252.017C239.75 250.297 239.75 248.589 239.762 246.881C239.773 242.516 239.773 238.164 239.762 233.812C235.164 232.888 230.66 231.565 226.319 229.787C226.612 227.354 226.775 224.92 226.963 222.486C231.151 223.727 235.409 224.744 239.727 225.482C239.808 218.005 239.773 210.517 239.773 203.041C239.773 201.263 239.773 199.496 239.773 197.73C190.94 197.753 142.107 197.694 93.2744 197.788C93.2744 198.198 93.2861 199.005 93.2861 199.403C93.3329 207.569 93.2393 215.724 93.3914 223.879C93.3914 225.774 93.3329 227.669 93.2744 229.576C92.8181 242.294 93.5903 255.035 93.1574 267.765L91.7886 266.794C91.6716 263.096 91.8237 259.399 91.9173 255.714C85.5061 255.702 79.1065 255.679 72.6953 255.737V255.515C79.0948 255.538 85.4827 255.503 91.8822 255.538C91.8822 252.719 91.8822 249.911 91.8822 247.091C91.8822 243.815 91.8705 240.539 91.8471 237.275C91.8237 234.9 91.812 232.525 91.812 230.15C91.812 228.196 91.8003 226.242 91.812 224.288C91.8588 216.063 91.8237 207.838 91.8471 199.613C91.8588 198.759 91.8822 197.039 91.8939 196.185C96.1641 196.173 100.446 196.314 104.716 195.975C117.89 194.395 131.18 195.846 144.4 195.109L145.184 194.079ZM241.177 233.859C241.177 238.246 241.177 242.645 241.201 247.044C241.177 251.432 241.189 255.819 241.247 260.207C242.956 260.218 244.664 260.218 246.372 260.23C246.395 255.796 246.29 251.35 246.629 246.927C246.465 245.324 245.623 244.283 244.114 243.78C244.079 240.481 244.102 237.17 244.137 233.87C243.4 233.87 241.914 233.859 241.177 233.859ZM220.68 252.508C220.306 253.21 219.545 254.614 219.159 255.316C225.992 255.62 232.836 255.527 239.68 255.398C239.68 254.614 239.691 253.035 239.691 252.251C233.35 252.298 226.998 251.9 220.68 252.508Z" fill="#754855"/>
<path d="M90.8057 177.386C95.111 175.163 100.118 176.52 104.728 176.274C113.549 176.696 122.546 175.163 131.215 177.304C118.486 178.743 105.652 177.374 92.8881 178.217C92.3617 178.018 91.3321 177.596 90.8057 177.386Z" fill="#EEDBDC"/>
<path d="M394.965 182.964C392.403 181.174 395.07 177.441 395.725 175.078C397.515 177.477 397.738 181.174 394.965 182.964Z" fill="#E7D3D5"/>
<path d="M494.117 184.45C495.673 181.479 496.106 177.29 499.312 175.559C500.528 178.413 501.277 181.432 502.061 184.439C499.405 184.427 496.761 184.427 494.117 184.45Z" fill="#AE717C"/>
<path d="M94.877 180.482C101.663 179.628 108.518 180.225 115.339 180.026C119.352 180.061 123.493 179.546 127.366 180.88C120.615 181.804 113.783 181.149 106.986 181.36C102.949 181.301 98.726 182.097 94.877 180.482Z" fill="#E8D5D6"/>
<path d="M48.1976 181.069C53.5208 180.777 58.8908 181.339 64.1905 180.531C62.7632 185.621 63.7577 191.26 61.605 196.104C57.44 201.965 54.7024 208.81 54.3163 216.04C48.806 205.218 48.1625 192.956 48.1976 181.069Z" fill="#F6E8E6"/>
<path d="M5.33136 183.35C15.9777 183.104 26.6475 182.976 37.2939 183.537C36.2761 187.878 36.0889 192.359 36.2059 196.817C25.3957 197.004 14.5621 197.074 3.75195 196.817C3.78705 192.277 4.36032 187.773 5.33136 183.35Z" fill="#F6E7E7"/>
<path d="M76.9428 185.221C78.2999 182.483 82.0437 182.752 84.1027 184.484C88.2677 187.456 92.6316 190.334 97.6272 191.679C102.248 193.259 107.209 192.37 111.959 193.189C122.944 194.955 134.117 193.727 145.185 194.078L144.401 195.107C131.181 195.845 117.89 194.394 104.717 195.973C100.447 196.312 96.1647 196.172 91.8945 196.184C91.8828 197.038 91.8594 198.758 91.8477 199.612C88.1039 199.741 84.3601 199.834 80.6163 199.6C81.1077 199.916 82.0788 200.571 82.5701 200.899C80.6163 201.215 78.6509 201.531 76.6971 201.858C76.0887 200.829 75.4803 199.799 74.8837 198.781L74.2285 197.681C74.9539 193.516 74.755 188.965 76.9428 185.221Z" fill="#F5E9E9"/>
<path d="M100.551 184.136C108.682 183.247 116.918 183.013 125.049 184.124C119.164 185.177 113.139 184.838 107.231 185.715C104.868 186.09 102.668 184.99 100.551 184.136Z" fill="#EDDBDD"/>
<path d="M490.607 184.472C491.485 184.472 493.24 184.449 494.117 184.449C496.761 184.426 499.405 184.426 502.061 184.437C510.812 184.519 519.563 184.472 528.314 184.484C532.245 184.484 536.188 184.508 540.119 184.543C538.142 190.287 536.036 195.997 534.106 201.765C533.895 202.385 533.474 203.613 533.263 204.234C521.306 204.397 509.338 204.327 497.381 204.269C497.077 203.368 496.773 202.479 496.469 201.578C494.574 195.856 492.468 190.205 490.607 184.472Z" fill="#E5E5E5"/>
<path d="M108.951 186.395C115.281 186.207 121.598 185.657 127.927 186.055L128.021 187.295C121.668 187.143 115.175 188.091 108.951 186.395Z" fill="#E4E9E8"/>
<path d="M129.672 187.27C132.526 186.311 136.305 184.123 138.821 186.919C139.581 187.925 142.131 189.668 139.616 190.16C136.27 190.019 132.889 189.727 129.578 190.546C129.602 189.727 129.648 188.089 129.672 187.27Z" fill="#FFA085"/>
<path d="M395.152 188.312C398.311 188.628 399.036 192.735 399.317 195.344C398.709 201.206 395.316 206.307 392.684 211.455C396.053 211.162 399.458 211.279 402.78 212.028C400.897 213.701 398.685 214.965 396.193 215.433C394.275 215.444 392.368 215.386 390.461 215.351C389.209 217.211 387.945 219.06 386.682 220.908C389.326 220.534 391.982 220.183 394.661 220.078C396.03 220.838 397.387 221.657 398.732 222.499C394.24 224.173 389.431 224.36 384.74 223.611C382.26 226.536 379.674 229.379 377.053 232.187C376.41 232.163 375.111 232.128 374.468 232.105C376 230.42 377.556 228.759 379.136 227.121C381.546 224.664 383.78 222.031 385.723 219.177C384.026 216.848 382.774 214.228 382.973 211.291C382.657 209.887 382.341 208.483 382.049 207.079C382.669 207.383 383.897 207.98 384.517 208.272C386.027 210.998 386.623 214.064 387.232 217.082C388.495 215.023 389.782 212.976 390.976 210.87C391.315 210.25 391.993 208.986 392.333 208.366C389.49 204.833 387.197 200.703 388.039 195.999C390.742 198.351 392.894 201.264 394.52 204.47C395.14 202.633 395.772 200.808 396.404 198.994C395.293 195.566 394.134 191.916 395.152 188.312Z" fill="#FD6B57"/>
<path d="M54.3164 216.038C54.7025 208.808 57.4401 201.963 61.6051 196.102C65.2904 199.261 70.2392 200.384 74.8838 198.781C75.4805 199.799 76.0888 200.828 76.6972 201.858C78.651 201.53 80.6165 201.214 82.5703 200.899C82.0789 200.571 81.1078 199.916 80.6165 199.6C84.3603 199.834 88.104 199.74 91.8478 199.612C91.8244 207.837 91.8595 216.062 91.8127 224.286C81.7162 225.936 70.7422 227.972 60.9733 223.924C57.4518 222.707 55.6384 219.256 54.3164 216.038Z" fill="#FF4741"/>
<path d="M534.105 201.769C536.363 200.797 538.633 199.826 540.856 198.738C543.699 201.172 546.588 203.57 549.221 206.25C554.93 212.088 558.475 220.102 557.551 228.386C557.457 228.854 557.258 229.79 557.165 230.258C557.024 230.878 556.743 232.118 556.615 232.726C555.503 237.582 554.006 242.355 552.134 246.965C549.911 252.335 547.29 257.518 544.436 262.573C543.851 263.614 543.266 264.655 542.704 265.696C540.435 265.568 538.177 265.427 535.93 265.228C537.276 259.273 538.551 253.295 539.51 247.257C540.306 242.461 540.821 237.593 540.867 232.726C540.867 231.942 540.879 230.386 540.891 229.602C524.278 229.45 507.653 229.462 491.04 229.602C491.251 230.375 491.684 231.896 491.894 232.668C493.146 237.558 494.772 242.355 496.586 247.07C498.925 253.224 501.429 259.32 503.944 265.404C501.593 265.626 499.23 265.732 496.878 265.837C496.703 265.568 496.352 265.018 496.176 264.749C491.742 258.911 487.273 253.072 483.283 246.918C480.347 242.402 477.562 237.769 475.316 232.855C475.059 232.235 474.521 230.983 474.252 230.351C474.064 229.825 473.69 228.783 473.503 228.257C471.21 219.248 478.884 212.205 484.664 206.507C487.168 204.284 489.765 202.155 492.304 199.955C493.672 200.517 495.065 201.067 496.469 201.581C496.773 202.482 497.077 203.371 497.381 204.272C509.338 204.331 521.306 204.401 533.263 204.237C533.474 203.617 533.895 202.389 534.105 201.769ZM506.858 213.574C500.446 216.932 492.877 221.073 490.935 228.608C507.478 228.421 524.032 228.737 540.575 228.503C537.404 221.143 530.081 216.838 523.073 213.714C517.972 211.374 511.912 210.824 506.858 213.574Z" fill="#FE4740"/>
<path d="M2.96735 205.662C14.3742 205.229 25.8161 205.217 37.223 205.72C37.8781 208.914 38.8258 212.05 40.1244 215.045C27.7114 216.344 15.1697 215.478 2.70996 215.56C2.78016 212.261 2.86205 208.961 2.96735 205.662Z" fill="#F6E7E5"/>
<path d="M384.519 208.275C385.057 207.983 386.156 207.375 386.695 207.082C388.122 208.346 389.538 209.609 390.977 210.873C389.783 212.979 388.496 215.026 387.233 217.085C386.624 214.067 386.028 211.001 384.519 208.275Z" fill="#EBCCCB"/>
<path d="M390.462 215.348C392.368 215.383 394.275 215.441 396.194 215.43C396.428 215.968 396.884 217.044 397.118 217.582C396.288 218.413 395.469 219.244 394.662 220.074C391.982 220.18 389.327 220.531 386.683 220.905C387.946 219.057 389.21 217.208 390.462 215.348Z" fill="#EBD1D4"/>
<path d="M41.2597 217.141C41.5288 217.574 41.8095 218.006 42.0903 218.439C36.4395 217.948 30.742 217.995 25.0678 218.217C23.0789 218.135 21.4878 219.387 19.8733 220.335C20.353 221.13 21.3357 222.721 21.8271 223.517C15.5212 222.487 9.18012 221.575 2.78059 221.516C7.54222 221.353 12.3038 221.61 17.0655 221.739C16.656 221.002 15.8604 219.527 15.4627 218.802C10.9701 217.889 6.33719 218.638 1.79785 218.205C14.9362 217.375 28.1798 218.779 41.2597 217.141Z" fill="#FA9693"/>
<path d="M102.249 221.164C105.829 219.866 109.292 218.239 112.649 216.449C104.273 224.464 103.419 236.55 100.447 247.103C98.2241 247.079 96.0129 247.056 93.79 247.044C94.0942 241.054 94.2346 235.075 93.8836 229.085C97.1126 226.944 100.073 224.405 102.249 221.164Z" fill="#F6EAE7"/>
<path d="M377.311 217.409C379.802 214.554 381.335 218.766 382.166 220.72C380.598 221.199 379.03 221.691 377.463 222.182C377.381 220.579 377.334 218.988 377.311 217.409Z" fill="#FA8075"/>
<path d="M19.8734 220.337C21.4879 219.389 23.079 218.137 25.0679 218.219C30.7421 217.997 36.4397 217.95 42.0904 218.442C47.7295 227.614 58.1536 232.095 68.3905 233.757C68.4139 234.459 68.4373 235.863 68.449 236.565C45.8693 237.009 23.2779 236.354 0.698242 236.916C1.69268 231.838 1.84478 226.655 2.14896 221.495L2.78072 221.519C9.18025 221.577 15.5213 222.49 21.8272 223.519C21.3358 222.724 20.3531 221.132 19.8734 220.337Z" fill="#F5E7E6"/>
<path d="M212.35 223.095C216.433 219.738 222.306 221.411 226.963 222.487C226.775 224.921 226.612 227.354 226.319 229.788C225.465 235.38 223.886 240.832 222.213 246.226C221.92 247.139 221.628 248.063 221.324 248.975C220.575 251.175 219.756 253.363 218.984 255.562C218.305 257.505 217.638 259.47 217.135 261.483C215.462 261.564 213.801 261.681 212.14 261.834C212.385 256.943 212.573 252.053 212.608 247.162C212.771 239.136 212.479 231.11 212.35 223.095Z" fill="black"/>
<path d="M295.661 221.482C298.223 220.417 301.745 221.693 302.388 224.559C303.839 228.303 299.066 232.386 295.579 230.351C291.894 228.818 291.812 222.839 295.661 221.482Z" fill="#FEF4F3"/>
<path d="M201.411 247.043C205.997 239.485 207.822 230.652 212.35 223.094C212.479 231.108 212.771 239.134 212.607 247.16C208.875 247.16 205.143 247.114 201.411 247.043Z" fill="#F8EEEB"/>
<path d="M93.2744 229.581L93.8828 229.09C94.2337 235.08 94.0934 241.059 93.7892 247.049C96.012 247.061 98.2232 247.084 100.446 247.108C99.4048 251.425 98.2232 255.707 97.3107 260.059C96.8193 262.481 96.4917 264.926 96.1407 267.383C101.101 267.43 106.062 267.465 111.022 267.301L109.677 265.839C110.484 266.506 111.291 267.173 112.087 267.863C124.839 268.097 137.591 267.805 150.344 267.957C159.411 267.641 168.513 268.46 177.545 267.325C181.944 267.196 186.354 267.231 190.73 266.67C190.741 264.88 190.753 263.09 190.765 261.311C194.86 256.994 198.451 252.209 201.411 247.049C205.143 247.119 208.875 247.166 212.607 247.166C212.572 252.057 212.385 256.947 212.139 261.838C209.414 263.148 206.91 264.845 204.465 266.611C208.466 267.43 212.572 267.559 216.644 267.36C216.808 265.406 216.948 263.429 217.135 261.487C217.638 259.474 218.305 257.509 218.984 255.567C225.933 255.859 232.894 255.812 239.855 255.637C239.832 256.783 239.785 259.077 239.762 260.223C237.082 260.188 234.38 259.86 231.748 260.364C228.858 261.615 230.507 265.067 230.449 267.43C232.262 267.301 234.099 267.278 235.889 266.915C236.907 265.137 237.621 263.183 238.51 261.335C239.294 263.721 239.925 266.167 240.487 268.624C240.826 266.529 241.166 264.412 241.528 262.329C246.442 262.235 251.356 262.212 256.281 262.341C257.463 264.014 257.404 267.933 260.317 267.419C262.704 267.828 263.78 265.196 265.301 263.897C272.426 261.896 279.89 262.247 287.214 262.048C296.176 262.154 305.161 261.744 314.111 262.376C324.172 263.253 334.035 260.364 344.038 259.931C355.526 263.639 368.208 263.686 379.44 259.065C389.876 260.352 400.37 261.124 410.782 262.622C414.69 263.441 420.083 263.756 421.101 268.53C395.48 276.053 368.524 273.304 342.213 273.818C332.069 274.392 321.996 275.994 311.829 276.147C300.528 276.252 289.215 276.111 277.913 276.17C273.584 276.264 269.314 275.538 265.067 274.801C260.013 273.947 254.854 274.193 249.753 274.193C183.874 274.333 117.983 274.052 52.1045 274.298C46.208 274.181 40.2999 274.006 34.4268 274.626C28.7877 275.257 22.9966 276.018 17.4745 274.193C21.9202 273.491 26.4128 273.28 30.9053 273.327C28.4134 272.59 25.9448 271.794 23.4528 271.092C59.9196 270.718 96.3513 270.882 132.806 270.905C160.873 271.045 188.928 270.601 216.983 270.928C206.91 269.794 196.79 271.244 186.693 270.554C181.218 270.145 175.743 270.636 170.279 270.73C152.297 270.671 134.327 270.73 116.357 270.706C109.232 270.694 102.096 269.805 94.9825 270.46C69.6184 270.601 44.2308 270.882 18.855 270.648C20.5865 269.852 22.2946 268.998 23.991 268.156C19.1007 267.606 13.4616 269.15 9.16797 266.143C16.4098 265.687 23.6634 265.781 30.9053 266.213C38.7556 266.728 46.5707 264.505 54.3976 265.839C55.8717 266.424 57.2873 267.325 58.9135 267.395C61.6862 267.594 61.7096 264.119 62.6807 262.294C68.8696 262.2 75.0703 262.224 81.2592 262.294C82.3004 264.423 82.5578 268.202 85.8219 267.383C88.7702 267.688 89.4838 264.341 89.1679 262.072C89.6476 263.347 90.0688 264.646 90.5719 265.933C90.876 266.155 91.4844 266.588 91.7886 266.798L93.1574 267.769C93.5903 255.04 92.8181 242.299 93.2744 229.581Z" fill="#DCC8CC"/>
<path d="M491.04 229.602C507.653 229.462 524.278 229.45 540.891 229.602C540.879 230.386 540.867 231.942 540.867 232.726C524.535 232.831 508.215 232.866 491.894 232.667C491.683 231.895 491.251 230.374 491.04 229.602Z" fill="#975566"/>
<path d="M74.9775 234.068C80.7804 233.729 86.4663 232.43 91.8129 230.148C91.8129 232.524 91.8246 234.899 91.8479 237.274C86.2323 237.063 80.6166 237.063 75.0009 237.285C74.9892 236.478 74.9892 234.863 74.9775 234.068Z" fill="#F8EFEC"/>
<path d="M222.213 246.227C223.886 240.834 225.465 235.382 226.319 229.789C230.66 231.567 235.164 232.89 239.762 233.814C239.774 238.166 239.774 242.518 239.762 246.882C233.9 247.011 228.016 247.14 222.213 246.227Z" fill="#FAF1EF"/>
<path d="M432.544 231.123C446.361 229.368 460.365 230.807 474.252 230.351C474.521 230.983 475.059 232.235 475.317 232.855C463.407 232.668 451.497 232.796 439.587 232.761C439.879 237.593 440.195 242.425 440.546 247.257C439.505 247.269 438.487 247.269 437.469 247.269C436.124 241.805 434.942 236.248 432.544 231.123Z" fill="#935364"/>
<path d="M556.615 232.726C556.744 232.118 557.025 230.878 557.165 230.258C569.251 230.504 581.336 230.024 593.421 230.539C590.754 235.78 589.607 241.595 588.215 247.258C587.478 247.269 586.016 247.304 585.279 247.316C585.314 245.514 585.36 243.713 585.431 241.923C585.665 238.892 585.875 235.85 586.086 232.82C576.258 232.797 566.431 232.75 556.615 232.726Z" fill="#925565"/>
<path d="M241.178 233.859C241.915 233.859 243.401 233.871 244.138 233.871C244.103 237.17 244.079 240.481 244.114 243.781C245.623 244.284 246.466 245.325 246.63 246.928C244.816 246.963 243.003 246.998 241.201 247.045C241.178 242.646 241.178 238.247 241.178 233.859Z" fill="#FBF1F0"/>
<path d="M0.698242 236.917C23.2779 236.356 45.8693 237.011 68.449 236.566L68.4373 237.631C48.5485 238.041 28.6362 237.596 8.74738 237.877C6.03313 237.935 3.27209 237.865 0.698242 236.917Z" fill="#DDC5CB"/>
<path d="M54.9245 274.729C78.522 274.062 102.143 274.588 125.752 274.413C161.88 274.647 198.007 274.027 234.123 274.717C224.647 277.209 214.784 275.185 205.167 276.636C217.674 277.256 230.204 277.115 242.722 277.197C250.35 277.314 258.025 276.601 265.618 277.701C263.102 278.285 260.528 278.765 257.931 278.789C241.962 278.777 225.98 278.66 210.011 278.707C151.877 278.999 93.7428 278.59 35.6206 278.753C32.7426 278.707 29.9113 278.262 27.0918 277.736C47.121 276.273 67.2673 277.876 87.3082 276.577C76.5565 275.08 65.5475 277.279 54.9245 274.729Z" fill="#DDC5CB"/>
<path d="M604.301 235.262C604.769 235.554 605.705 236.151 606.173 236.443C608.161 238.058 607.846 240.819 608.337 243.089C610.431 244.762 612.56 246.4 614.748 247.956C620.2 252.086 626.447 254.906 632.543 257.924C614.467 257.854 596.404 257.913 578.328 257.913C584.868 254.683 591.49 251.501 597.351 247.09C599.071 245.792 600.744 244.434 602.417 243.054C602.92 240.433 603.575 237.836 604.301 235.262Z" fill="#935465"/>
<path d="M74.9998 237.289C80.6155 237.067 86.2312 237.067 91.8469 237.278C91.8703 240.542 91.882 243.818 91.882 247.094C85.4356 247.246 78.9893 247.328 72.5547 247.024C72.9174 245.549 73.7129 244.344 74.9414 243.42C74.9881 241.373 74.9998 239.325 74.9998 237.289Z" fill="#F5E6E5"/>
<path d="M114.545 240.731C116.697 241.304 118.979 241.878 120.979 240.462C145.021 240.532 169.075 240.216 193.117 240.661C192.216 243.036 191.362 245.446 190.473 247.833C163.752 247.084 137.007 247.739 110.274 247.482C111.737 245.259 113.141 242.989 114.545 240.731Z" fill="#F7ECE8"/>
<path d="M584.412 246.974C584.752 245.289 585.138 243.616 585.43 241.92C585.36 243.71 585.313 245.512 585.278 247.314C586.015 247.302 587.478 247.267 588.215 247.255C591.245 247.185 594.298 247.138 597.352 247.091C591.49 251.502 584.869 254.684 578.329 257.914C596.404 257.914 614.468 257.855 632.543 257.925C626.448 254.907 620.201 252.087 614.749 247.957C617.872 247.489 621.019 247.115 624.19 247.126C639.341 247.29 654.491 247.068 669.642 247.161C669.782 248.706 669.923 250.25 670.051 251.806C668.624 260.71 669.759 270.409 665.079 278.482C662.213 282.94 657.896 287.268 652.315 287.631C647.612 288.029 642.897 287.701 638.194 287.76C441.657 287.736 245.12 287.772 48.5834 287.748C39.9376 287.69 30.66 288.743 22.7981 284.355C11.169 277.85 3.6697 265.355 1.77441 252.333C24.5647 252.099 47.3433 252.216 70.1335 252.239C70.1452 253.035 70.1803 254.626 70.2037 255.422C48.1739 255.503 26.1207 255.059 4.10258 255.609C25.2667 256.03 46.4541 255.714 67.6299 255.808C68.1213 255.971 69.0923 256.299 69.5837 256.463C69.689 256.966 69.9113 257.984 70.0166 258.487C67.6299 259.282 65.0911 259.201 62.6226 259.247C43.4942 258.978 24.3541 258.627 5.22571 259.165C22.0727 259.598 38.9315 258.814 55.7668 259.774L55.6264 260.371C55.1935 262.184 54.784 264.009 54.398 265.834C46.5711 264.501 38.756 266.724 30.9057 266.209C23.6638 265.776 16.4103 265.682 9.16838 266.139C13.462 269.145 19.1011 267.601 23.9914 268.151C22.295 268.993 20.5869 269.847 18.8554 270.643C17.1005 270.69 15.3456 270.725 13.5907 270.772C16.8782 270.854 20.1657 270.935 23.4533 271.088C25.9452 271.79 28.4138 272.585 30.9057 273.322C26.4132 273.275 21.9206 273.486 17.4749 274.188C22.997 276.013 28.7881 275.253 34.4272 274.621C41.2596 274.258 48.1037 274.34 54.9244 274.726C65.5474 277.277 76.5565 275.077 87.3082 276.575C67.2672 277.873 47.121 276.271 27.0917 277.733C29.9113 278.26 32.7425 278.704 35.6206 278.751C93.7428 278.587 151.877 278.997 210.011 278.704C225.98 278.657 241.961 278.774 257.931 278.786C260.528 278.763 263.102 278.283 265.618 277.698C258.025 276.598 250.35 277.312 242.722 277.195C230.204 277.113 217.674 277.253 205.167 276.633C214.784 275.183 224.646 277.207 234.123 274.715C244.418 274.305 254.784 274.094 265.068 274.796C269.314 275.534 273.585 276.259 277.913 276.165C289.215 276.107 300.528 276.247 311.83 276.142C321.997 275.99 332.07 274.387 342.213 273.814C368.525 273.299 395.48 276.048 421.102 268.525C420.084 263.752 414.69 263.436 410.783 262.617C400.37 261.119 389.876 260.347 379.44 259.06C384.962 255.773 389.174 250.543 391.058 244.377C391.104 245.02 391.221 246.307 391.28 246.963C406.653 247.676 422.073 246.892 437.469 247.267C438.487 247.267 439.505 247.267 440.546 247.255C454.784 246.846 469.045 247.676 483.283 246.916C487.273 253.07 491.742 258.908 496.176 264.746C488.642 266.291 480.944 266.77 473.409 268.256C470.496 268.736 468.133 270.596 465.805 272.258C474.029 276.364 483.389 277.733 492.502 277.92C494.316 277.827 496.153 277.721 497.966 277.487C509.747 279.324 521.727 279.359 533.626 279.441C536.96 279.547 540.224 278.763 543.5 278.236C544.857 278.037 546.226 277.885 547.606 277.78C556.697 277.569 565.986 277.417 574.667 274.399C576.375 273.907 577.779 272.761 578.902 271.404C575.568 268.689 571.204 268.034 567.097 267.461C559.844 266.525 552.567 265.741 545.266 265.296C544.974 264.384 544.705 263.471 544.436 262.57C547.29 257.516 549.911 252.333 552.134 246.963C562.897 247.232 573.661 247.395 584.412 246.974Z" fill="#E4D4D9"/>
<path d="M330.876 244.412C332.737 251.303 337.931 256.545 344.038 259.926C334.035 260.359 324.173 263.249 314.111 262.371C305.161 261.74 296.176 262.149 287.215 262.044C279.891 262.243 272.427 261.892 265.302 263.892C264.307 262.676 263.535 261.236 262.26 260.3C257.674 259.856 253.053 260.312 248.443 260.254C248.443 259.131 248.42 256.872 248.408 255.749C250.748 255.702 253.099 255.656 255.439 255.585C253.111 255.539 250.783 255.504 248.455 255.48C248.396 252.637 248.291 249.794 248.232 246.951C275.644 247.314 303.079 247.302 330.502 246.951C330.596 246.319 330.783 245.044 330.876 244.412Z" fill="#E4D4D9"/>
<path d="M496.586 247.068C510.894 247.314 525.203 247.08 539.511 247.256C538.551 253.293 537.276 259.271 535.931 265.227L535.334 265.168C525.238 264.115 514.931 263.811 504.857 265.297L503.945 265.402C501.429 259.318 498.926 253.222 496.586 247.068Z" fill="#E4D4D9"/>
<path d="M0.289062 245.63C0.979322 241.956 4.7816 242.962 7.53094 242.833C26.2733 243.091 45.0273 242.822 63.7696 242.904C65.3373 242.974 66.8582 243.301 68.3206 243.863C68.9407 244.074 70.1691 244.495 70.7892 244.705C70.7892 245.618 70.7892 247.466 70.7892 248.379C47.7532 248.508 24.7055 248.087 1.66958 248.578C23.1495 249.011 44.6529 248.625 66.1329 248.777C68.2738 248.835 71.3858 248.344 70.0287 251.55C63.676 252.182 57.2882 251.702 50.9237 251.807C34.5096 251.702 18.1071 252.006 1.70468 251.702C1.3303 250.099 0.967624 248.496 0.604945 246.893C22.0615 246.297 43.5415 246.823 64.998 246.624C66.6242 246.531 68.227 246.367 69.8415 246.18C46.6769 245.197 23.4537 246.414 0.289062 245.63Z" fill="#E9D9DB"/>
<path d="M221.325 248.976C221.629 248.063 221.921 247.139 222.214 246.227C228.017 247.139 233.901 247.01 239.763 246.882C239.751 248.59 239.751 250.298 239.751 252.018C233.27 251.889 226.788 251.866 220.318 252.182C220.564 251.386 221.079 249.783 221.325 248.976Z" fill="#E2D5DB"/>
<path d="M72.5547 247.023C78.9893 247.328 85.4356 247.246 91.882 247.094C91.882 249.913 91.882 252.721 91.882 255.541C85.4824 255.506 79.0946 255.541 72.6951 255.517C72.6834 252.674 72.6015 249.855 72.5547 247.023Z" fill="#E0CFD5"/>
<path d="M241.201 247.045C243.002 246.998 244.816 246.963 246.629 246.928C246.29 251.35 246.395 255.796 246.372 260.23C244.664 260.219 242.956 260.219 241.248 260.207C241.189 255.82 241.177 251.432 241.201 247.045Z" fill="#E3D2D6"/>
<path d="M109.186 249.129C109.455 248.719 110.004 247.888 110.274 247.479C137.007 247.736 163.751 247.081 190.472 247.83C190.016 249.035 189.56 250.24 189.104 251.457C162.687 250.977 136.258 251.632 109.841 251.164C109.677 250.661 109.349 249.643 109.186 249.129Z" fill="#E3D7DB"/>
<path d="M104.576 255.938C106.12 253.68 107.676 251.41 109.186 249.129C109.349 249.644 109.677 250.662 109.841 251.165C136.258 251.633 162.687 250.977 189.104 251.457C188.671 252.545 188.261 253.645 187.84 254.757C180.025 255.178 172.233 256.219 164.395 255.833C144.459 255.938 124.512 255.669 104.576 255.938Z" fill="#E2D4D8"/>
<path d="M164.395 255.834C172.233 256.22 180.025 255.179 187.84 254.758C186.951 257.121 186.074 259.485 185.196 261.848C182.295 263.135 179.674 264.972 177.545 267.323C168.513 268.458 159.411 267.639 150.344 267.955C137.592 267.803 124.839 268.096 112.087 267.862C111.292 267.171 110.484 266.504 109.677 265.838C107.817 263.872 105.103 263.381 102.622 262.655C102.365 262.047 101.85 260.818 101.593 260.21C102.587 258.783 103.582 257.367 104.576 255.94C124.512 255.67 144.459 255.94 164.395 255.834Z" fill="#DAC7CC"/>
<path d="M72.6953 255.737C79.1065 255.679 85.5061 255.702 91.9173 255.714C91.8237 259.399 91.6716 263.096 91.7886 266.794C91.4844 266.583 90.8761 266.15 90.5719 265.928C90.0688 264.641 89.6476 263.342 89.1679 262.067C88.2203 260.546 86.5356 259.785 84.7924 260.078C80.7678 260.148 76.7316 260.288 72.707 260.288C72.707 259.142 72.6953 256.872 72.6953 255.737Z" fill="#E1D5DA"/>
<path d="M97.3115 260.055C98.7389 260.101 100.166 260.148 101.593 260.207C101.851 260.815 102.366 262.044 102.623 262.652C105.103 263.377 107.818 263.869 109.678 265.834L111.023 267.297C106.063 267.461 101.102 267.426 96.1416 267.379C96.4926 264.922 96.8202 262.477 97.3115 260.055Z" fill="#060C3D"/>
<path d="M185.196 261.845C187.045 261.611 188.905 261.459 190.765 261.307C190.753 263.085 190.742 264.875 190.73 266.665C186.355 267.227 181.944 267.192 177.545 267.32C179.674 264.969 182.295 263.132 185.196 261.845Z" fill="#070A3B"/>
<path d="M204.465 266.609C206.91 264.842 209.414 263.146 212.14 261.835C213.801 261.683 215.462 261.566 217.135 261.484C216.948 263.427 216.808 265.404 216.644 267.358C212.572 267.557 208.466 267.428 204.465 266.609Z" fill="#0A0B3F"/>
<path d="M542.705 265.694C543.267 264.653 543.852 263.612 544.437 262.57C544.706 263.471 544.975 264.384 545.267 265.296C552.568 265.741 559.845 266.525 567.098 267.461C571.205 268.034 575.569 268.689 578.903 271.404C577.78 272.761 576.376 273.907 574.668 274.399C565.987 277.417 556.697 277.57 547.607 277.78C546.355 273.603 544.647 269.59 542.705 265.694Z" fill="#DDC9CD"/>
<path d="M496.175 264.75C496.351 265.019 496.702 265.569 496.877 265.838C495.286 269.816 493.554 273.747 492.502 277.924C483.388 277.737 474.028 276.368 465.804 272.261C468.132 270.6 470.495 268.74 473.408 268.26C480.943 266.774 488.641 266.294 496.175 264.75Z" fill="#DCC7CC"/>
<path d="M504.857 265.297C514.93 263.811 525.237 264.115 535.333 265.168C535.018 266.315 534.713 267.461 534.409 268.62C537.065 272.153 539.931 275.581 543.5 278.237C540.224 278.763 536.96 279.547 533.625 279.442C521.727 279.36 509.747 279.325 497.966 277.488C500.633 274.809 502.95 271.802 505.348 268.889C505.219 267.988 504.985 266.198 504.857 265.297Z" fill="#DCC8CD"/>
<path d="M496.877 265.831C499.229 265.726 501.592 265.621 503.944 265.398L504.856 265.293C504.985 266.194 505.219 267.984 505.348 268.885C502.949 271.798 500.633 274.805 497.966 277.484C496.152 277.718 494.315 277.823 492.502 277.917C493.555 273.74 495.286 269.809 496.877 265.831Z" fill="#744953"/>
<path d="M535.333 265.168L535.93 265.226C538.176 265.425 540.434 265.566 542.704 265.694C544.646 269.591 546.354 273.604 547.606 277.78C546.226 277.886 544.857 278.038 543.5 278.237C539.931 275.581 537.065 272.153 534.409 268.619C534.713 267.461 535.018 266.315 535.333 265.168Z" fill="#734855"/>
</svg>
