<svg width="97" height="97" viewBox="0 0 97 97" fill="none" xmlns="http://www.w3.org/2000/svg">
<circle opacity="0.1" cx="48.5" cy="48.5" r="48.5" fill="#830900"/>
<path d="M41.0827 64.8337H36.3327C35.4928 64.8337 34.6874 64.5 34.0935 63.9062C33.4996 63.3123 33.166 62.5068 33.166 61.667V50.5837C33.166 49.7438 33.4996 48.9384 34.0935 48.3445C34.6874 47.7506 35.4928 47.417 36.3327 47.417H41.0827M52.166 44.2503V37.917C52.166 36.6572 51.6656 35.449 50.7748 34.5582C49.884 33.6674 48.6758 33.167 47.416 33.167L41.0827 47.417V64.8337H58.9427C59.7064 64.8423 60.4474 64.5746 61.0294 64.08C61.6113 63.5854 61.9948 62.8971 62.1094 62.142L64.2943 47.892C64.3632 47.4381 64.3326 46.9747 64.2046 46.5339C64.0767 46.093 63.8543 45.6853 63.5531 45.3389C63.2519 44.9925 62.879 44.7157 62.4602 44.5278C62.0414 44.3398 61.5867 44.2451 61.1277 44.2503H52.166Z" stroke="black" stroke-width="2" stroke-linecap="round" stroke-linejoin="round"/>
</svg>
