<svg width="66" height="66" viewBox="0 0 66 66" fill="none" xmlns="http://www.w3.org/2000/svg">
<path d="M32.5695 49.6868C33.7505 49.3176 35.1357 50.4564 34.7938 51.7154C34.776 53.2012 32.6095 53.8418 31.6593 52.7875C30.6915 51.8266 31.1798 49.9226 32.5695 49.6868Z" fill="#830900"/>
<path d="M27.0167 6.0509C29.7662 4.22274 33.3485 4.01341 36.4701 4.86935C39.308 5.61829 41.5039 7.99072 42.2018 10.8144C43.4114 15.9918 41.9738 21.7322 38.6009 25.8257C37.4937 26.784 38.8614 27.826 39.8524 27.9516C42.7228 28.575 45.798 28.9704 48.2079 30.8078C51.3156 33.2454 53.4696 36.711 54.9444 40.3347C56.6006 44.6423 57.4288 49.3825 56.7774 53.9738C55.6469 56.551 52.5392 57.165 50.1246 57.9232C50.3014 56.7556 50.4922 55.5973 50.6922 54.439C51.953 53.9087 54.121 53.6622 53.8 51.8014C53.8837 45.1075 51.6041 38.0042 46.4354 33.5291C43.5509 31.0218 39.1406 32.1801 36.298 29.6728C34.4697 28.1703 34.6557 25.2071 36.2096 23.5743C38.4753 20.9832 39.336 17.4525 39.4197 14.0799C39.4197 11.7261 38.4613 8.9955 36.0607 8.13492C33.9114 7.40924 31.4084 7.41389 29.3475 8.41868C27.3423 9.51651 26.6026 11.968 26.6119 14.1218C26.6491 17.5316 27.6029 21.0716 29.8778 23.6859C31.3619 25.3466 31.4736 28.1935 29.701 29.6914C27.6447 31.6079 24.6626 31.273 22.1736 32.1801C19.6102 32.9291 17.7865 35.0456 16.3303 37.1715C13.2086 41.7768 12.0223 47.4381 12.1758 52.9411C13.1528 53.5971 14.2135 54.118 15.3394 54.4762C15.5255 55.602 15.7162 56.737 15.893 57.8674C13.3901 57.2162 10.1242 56.4253 9.17045 53.704C8.50983 48.1405 9.80782 42.3908 12.3992 37.446C14.2089 34.292 16.4699 31.0637 19.9312 29.5937C22.0434 28.6122 24.3928 28.4075 26.6212 27.8307C27.4773 27.6679 28.2774 26.6259 27.4307 25.9141C24.4858 22.2532 23.0017 17.4432 23.4437 12.7588C23.6763 10.1724 24.8441 7.56739 27.0167 6.0509Z" fill="#830900"/>
<path d="M19.0429 42.3518C27.9867 42.1174 36.9538 42.338 45.9069 42.2461C47.3431 42.168 49.0358 42.3702 49.9171 43.6386C50.9103 44.907 50.4627 46.5844 50.2668 48.0321C49.7026 51.2628 49.2036 54.5028 48.6441 57.7382C48.4156 59.9349 46.3079 61.7548 44.051 61.6077C36.9071 61.5939 29.768 61.6307 22.6288 61.5847C20.4372 61.6629 18.5766 59.8338 18.3341 57.7519C17.7186 53.887 17.0051 50.0358 16.4316 46.1662C16.1285 44.475 17.3316 42.6965 19.0429 42.3518ZM19.5745 45.4631C20.232 49.2086 20.7869 52.9724 21.4677 56.7133C21.6216 57.3383 21.7148 58.4275 22.6195 58.3724C29.1431 58.4643 35.6714 58.3678 42.195 58.4137C43.137 58.3953 44.1069 58.4689 45.0302 58.2253C45.5525 57.2878 45.5851 56.1756 45.7996 55.1508C46.2799 51.9062 46.956 48.6939 47.3151 45.4355C38.0682 45.4309 28.8167 45.3712 19.5745 45.4631Z" fill="#830900"/>
</svg>
