<svg width="38" height="46" viewBox="0 0 38 46" fill="none" xmlns="http://www.w3.org/2000/svg">
<path d="M36 19C36 32.2222 19 43.5556 19 43.5556C19 43.5556 2 32.2222 2 19C2 14.4913 3.79107 10.1673 6.97918 6.97918C10.1673 3.79107 14.4913 2 19 2C23.5087 2 27.8327 3.79107 31.0208 6.97918C34.2089 10.1673 36 14.4913 36 19Z" stroke="black" stroke-width="3" stroke-linecap="round" stroke-linejoin="round"/>
<path d="M18.9987 24.6668C22.1283 24.6668 24.6654 22.1298 24.6654 19.0002C24.6654 15.8705 22.1283 13.3335 18.9987 13.3335C15.8691 13.3335 13.332 15.8705 13.332 19.0002C13.332 22.1298 15.8691 24.6668 18.9987 24.6668Z" stroke="black" stroke-width="3" stroke-linecap="round" stroke-linejoin="round"/>
</svg>
