<svg width="105" height="80" viewBox="0 0 105 80" fill="none" xmlns="http://www.w3.org/2000/svg">
<path d="M44.2009 15.5647C46.4031 10.3478 48.5953 5.12111 51.0641 0.0112249C61.8281 0.0598905 72.592 -0.0861193 83.3559 0.0890768C85.3013 0.361604 84.9754 2.67808 84.4422 4.01152C81.9536 10.5522 79.1985 16.976 76.6408 23.4875C76.2261 24.5192 75.5644 25.9597 74.172 25.765C60.3073 25.9305 46.4327 25.7456 32.568 25.8526C31.0768 26.0084 29.6943 25.5314 28.3809 24.9085C28.4105 24.0423 28.4302 23.1858 28.45 22.3292C29.7733 21.8426 31.1262 21.3267 32.5778 21.4046C45.9784 21.4143 59.3691 21.463 72.7697 21.3949C75.0608 15.7886 77.184 10.1142 79.7219 4.615C71.0614 4.20621 62.3909 4.47873 53.7304 4.45926C51.6369 9.35502 49.4841 14.2216 47.3906 19.1076C46.5709 19.1465 44.9218 19.2049 44.1021 19.2439C43.9836 18.0175 43.5985 16.723 44.2009 15.5647Z" fill="#830900"/>
<path d="M0.146484 29.4864C35.0452 29.3969 69.9438 29.377 104.852 29.4864C104.843 30.8191 104.843 32.1518 104.852 33.4945C103.288 33.7232 101.733 33.9519 100.189 34.1707C100.287 49.4471 100.267 64.7235 100.199 79.9999C98.7915 79.9899 97.3846 79.98 95.9973 79.9899C95.9777 64.6638 95.9678 49.3377 95.9973 34.0216C77.1459 33.9619 58.2847 33.8425 39.4432 34.0514C39.4235 47.1199 39.453 60.1883 39.4333 73.2468C29.2992 73.3463 19.1553 73.3164 9.02119 73.2767C9.02119 75.5144 9.01135 77.7621 8.99167 79.9999C7.5847 79.9899 6.19741 79.9899 4.80028 79.9899C4.73141 64.7235 4.71174 49.4471 4.81013 34.1707C3.24574 33.9519 1.69118 33.7232 0.156303 33.4945C0.146464 32.1618 0.146484 30.8191 0.146484 29.4864ZM9.03103 42.5151C17.7582 42.6145 26.4951 42.6245 35.2223 42.4852C35.2124 39.6706 35.2222 36.8561 35.2419 34.0415C26.8395 33.5939 18.4075 34.2702 10.0051 33.753C7.83068 35.8516 9.54266 39.7104 9.03103 42.5151ZM9.01134 47.1795C9.05069 49.9345 9.04087 52.6794 8.87361 55.4343C17.5712 56.4488 26.4262 55.5935 35.1829 55.9018C35.2222 52.9778 35.2124 50.0439 35.2223 47.1199C26.4853 47.1497 17.7483 47.0304 9.01134 47.1795ZM9.02119 60.2579C9.01135 63.1521 9.0212 66.0463 9.03103 68.9404C17.7582 69.0399 26.4755 69.0001 35.2026 68.9503C35.2223 66.0462 35.2222 63.1521 35.2124 60.248C26.4853 60.1982 17.7483 60.1485 9.02119 60.2579Z" fill="#830900"/>
<path d="M18.9707 36.5367C20.536 36.5037 22.1014 36.4707 23.6766 36.4707C23.627 38.032 23.5973 39.6043 23.5874 41.1766C22.0716 41.1766 20.5558 41.1656 19.0599 41.1436C19.0301 39.6043 19.0004 38.076 18.9707 36.5367Z" fill="#830900"/>
<path d="M19.099 49.4553C20.5788 49.4335 22.0685 49.4116 23.5582 49.4116C23.5779 50.973 23.6174 52.5452 23.6766 54.1175C22.108 54.0957 20.5393 54.0629 18.9707 54.0302C19.02 52.5016 19.0595 50.973 19.099 49.4553Z" fill="#830900"/>
<path d="M18.9707 62.3842C20.5291 62.3634 22.0978 62.353 23.6766 62.353C23.6664 63.9217 23.6562 65.4903 23.6664 67.0589C22.0978 67.0485 20.5291 67.0485 18.9707 67.0381C18.9707 65.4799 18.9707 63.932 18.9707 62.3842Z" fill="#830900"/>
</svg>
