<svg width="47" height="63" viewBox="0 0 47 63" fill="none" xmlns="http://www.w3.org/2000/svg">
<path d="M21.0516 1.65319C21.8634 1.05903 23.0085 0.22577 24.0305 0.899636C27.0456 2.84153 29.5462 5.48626 32.0105 8.07304C35.0474 11.5221 37.8233 15.587 38.4104 20.2606C38.5988 26.5065 38.3886 32.7597 38.4829 39.0129C38.2654 40.1142 39.2511 40.8171 39.8745 41.5562C41.8459 43.6502 44.1363 45.4617 45.8685 47.7731C46.5498 51.7946 46.0497 55.9464 46.1294 60.0259C46.5498 61.8373 44.1145 62.9894 42.9113 61.6344C40.3456 59.2361 37.8233 56.7145 34.6197 55.1639C33.0614 57.4608 31.5104 59.7723 29.9738 62.0837C25.4366 62.2504 20.8342 62.5692 16.326 61.9678C14.4053 59.9317 13.1804 57.3522 11.4916 55.1277C8.43297 56.7435 5.92519 59.1202 3.42465 61.4678C2.59114 62.5692 1.25025 61.8808 0.141321 61.8084C-0.0833644 57.2072 0.025381 52.5989 0.0326289 47.9905C2.35197 45.2588 5.21489 43.0416 7.49798 40.2881C7.9546 36.4768 7.58494 32.6148 7.7009 28.789C7.83861 24.4052 7.07035 19.7534 9.07803 15.6667C11.767 10.0584 16.152 5.40655 21.0516 1.65319ZM13.3398 16.0507C19.8702 16.058 26.4006 16.0725 32.9382 16.0507C30.3724 11.8481 27.1036 7.96434 23.0158 5.18917C19.1889 8.17447 15.6519 11.7394 13.3398 16.0507ZM11.5786 39.7302C11.5351 40.7809 11.6365 41.9837 10.7088 42.7083C8.4692 45.0559 6.12085 47.3021 3.845 49.6063C3.8595 51.6134 3.85228 53.6205 3.87402 55.6276C6.93265 52.9539 10.6581 50.5773 14.8764 50.6642C20.4645 50.6425 26.0599 50.6207 31.6553 50.6642C35.7577 50.6642 39.2367 53.1278 42.346 55.5407C42.2011 53.5191 42.6794 51.3526 42.0199 49.4397C39.7803 46.8022 37.171 44.498 34.7502 42.0417C34.4458 34.6871 34.7792 27.3181 34.5762 19.9635C26.9514 19.949 19.3266 19.9418 11.7018 19.9635C11.3974 26.55 11.5931 33.1437 11.5786 39.7302ZM15.8766 54.5697C16.7898 55.7581 17.3987 57.2942 18.5946 58.2289C21.6749 58.4898 24.777 58.2796 27.8719 58.2941C28.6619 57.0478 29.4447 55.8015 30.2492 54.5552C25.4584 54.5697 20.6675 54.5552 15.8766 54.5697Z" fill="#830900"/>
<path d="M19.5722 26.4205C24.3921 23.8047 30.9587 27.6523 30.8065 33.1736C31.2486 38.8109 24.4718 43.028 19.5794 40.2383C14.0203 37.7892 14.0855 28.9203 19.5722 26.4205ZM22.2394 29.7029C19.2605 30.0579 18.2966 34.4127 20.6014 36.1879C22.5946 38.2457 26.6969 36.811 26.8274 33.8837C27.371 31.3621 24.7182 28.8768 22.2394 29.7029Z" fill="#830900"/>
</svg>
