<svg width="62" height="61" viewBox="0 0 62 61" fill="none" xmlns="http://www.w3.org/2000/svg">
<path d="M35.1372 0.285281C39.6896 0.306766 44.781 -0.960847 48.8308 1.6818C51.6861 2.77037 55.3936 0.936984 57.9138 2.86347C58.1323 8.53549 58.1104 14.2433 57.9283 19.9225C56.7993 21.7845 54.0752 20.9108 52.2542 21.0469C49.6393 21.1758 47.9131 19.1562 46.4199 17.373C43.8633 17.1151 41.2848 17.3157 38.7209 17.3013C38.9612 20.1159 37.8905 23.3672 39.777 25.8022C46.653 35.7426 53.325 45.819 60.1936 55.7665C60.9366 56.9124 61.8179 58.0583 62 59.4476C61.5047 61.0661 59.5308 60.9372 58.1614 60.9802C42.1224 60.9659 26.0834 60.9802 10.0444 60.973C6.69384 60.9229 3.27773 61.2667 0 60.4073C0.043703 59.0036 0.378759 57.6357 1.27467 56.5185C6.50446 49.0632 11.3336 41.343 16.7528 34.0238C20.2563 34.8689 21.1377 38.8579 23.2136 41.3143C26.6661 36.1866 30.1624 31.0875 33.6367 25.9741C34.0738 25.2293 34.7002 24.5203 34.773 23.6251C35.1518 15.8547 34.438 8.04134 35.1372 0.285281ZM38.7281 3.93771C38.699 7.08883 38.699 10.2328 38.7209 13.3839C42.0569 13.4913 45.3929 13.255 48.7216 13.477C50.375 13.6704 50.2148 15.7688 51.0815 16.8358C52.094 17.0578 53.1356 17.1509 54.1699 17.2727C54.1917 13.477 54.1917 9.68135 54.1553 5.87852C52.9171 5.87136 51.6788 5.8642 50.4478 5.85704C50.2439 7.08168 50.4843 8.53549 49.45 9.4665C48.4812 9.77445 47.5999 9.63122 46.8132 9.04397C46.4053 7.51137 46.3616 5.90717 46.1431 4.34593C43.703 3.84462 41.1974 3.96636 38.7281 3.93771ZM30.847 37.1176C31.5172 37.7765 32.1945 38.4425 32.8719 39.1085C33.9427 38.0701 34.977 36.9744 36.2298 36.1436C38.2765 36.0577 39.3327 38.0987 40.7312 39.2088C41.3503 38.4926 42.0132 37.8266 42.5667 37.0675C40.9206 33.988 38.6335 31.2952 36.8125 28.3231C34.7366 31.1949 32.821 34.1742 30.847 37.1176ZM5.71052 57.1272C7.99765 57.0843 10.3285 57.3063 12.5938 56.8837C15.4709 52.909 18.1149 48.7696 20.8682 44.7089C19.7319 43.0331 18.5883 41.3645 17.4302 39.7101C13.5552 45.5325 9.52725 51.2619 5.71052 57.1272ZM28.5016 40.4549C24.816 46.041 20.9774 51.5197 17.2845 57.0914C30.2935 57.1057 43.2951 57.0771 56.304 57.1057C52.9753 52.1714 49.6102 47.2656 46.3179 42.317C45.8517 41.7369 45.5094 40.9133 44.679 40.813C43.317 41.9016 42.0569 43.1119 40.6729 44.179C39.2963 43.1907 38.0216 42.0735 36.7761 40.9276C35.4358 41.9302 34.4234 43.8925 32.566 43.8496C31 42.9973 29.82 41.6223 28.5016 40.4549Z" fill="#830900"/>
</svg>
