<svg width="53" height="30" viewBox="0 0 53 30" fill="none" xmlns="http://www.w3.org/2000/svg">
<path d="M20.4701 2H3.84701C2.82693 2 2 3.47145 2 5.28659V25.0061C2 26.8212 2.82693 28.2927 3.84701 28.2927H20.4701C21.4901 28.2927 22.3171 26.8212 22.3171 25.0061V5.28659C22.3171 3.47145 21.4901 2 20.4701 2Z" stroke="black" stroke-width="3" stroke-linecap="round" stroke-linejoin="round"/>
<path d="M49.0448 2H31.4439C30.3639 2 29.4883 2.53507 29.4883 3.19512V10.3659C29.4883 11.0259 30.3639 11.561 31.4439 11.561H49.0448C50.1249 11.561 51.0005 11.0259 51.0005 10.3659V3.19512C51.0005 2.53507 50.1249 2 49.0448 2Z" stroke="black" stroke-width="3" stroke-linecap="round" stroke-linejoin="round"/>
<path d="M49.0448 18.7319H31.4439C30.3639 18.7319 29.4883 19.267 29.4883 19.9271V27.0978C29.4883 27.7578 30.3639 28.2929 31.4439 28.2929H49.0448C50.1249 28.2929 51.0005 27.7578 51.0005 27.0978V19.9271C51.0005 19.267 50.1249 18.7319 49.0448 18.7319Z" stroke="black" stroke-width="3" stroke-linecap="round" stroke-linejoin="round"/>
</svg>
