<svg width="26" height="33" viewBox="0 0 26 33" fill="none" xmlns="http://www.w3.org/2000/svg">
<path d="M3.99539 1.19202C4.31869 0.327621 5.3713 0.624525 6.08557 0.538086C11.311 0.601976 16.5402 0.455405 21.7619 0.620768C22.0815 3.32294 20.6943 5.88606 20.2958 8.52811C21.3634 8.55066 22.4499 8.44166 23.5138 8.62581C24.1416 8.98285 23.9987 9.67813 23.7844 10.2456C22.7506 10.7906 21.5289 10.4749 20.4236 10.5613C21.9687 15.1163 23.5551 19.66 25.1453 24.2C25.5476 25.4214 26.1115 26.6691 25.9385 27.992C25.743 30.4086 23.5551 32.5169 21.0965 32.4681C15.9613 32.547 10.8223 32.4719 5.68708 32.5019C4.17207 32.5545 2.56307 32.1637 1.49167 31.0324C0.111998 29.7396 -0.357906 27.6388 0.281178 25.8649C2.09317 20.4079 4.11191 15.0148 5.86376 9.53907C5.45399 6.7204 4.34876 4.02197 3.99539 1.19202ZM6.3224 2.57881C6.79984 4.57067 7.32239 6.55128 7.80734 8.54314C8.52161 8.53563 9.23963 8.53187 9.96142 8.52811C10.0479 7.41943 9.56293 5.19078 11.4088 5.52527C12.3561 6.20175 11.8674 7.53593 12.0103 8.51683C12.6493 8.52435 13.2959 8.53562 13.9425 8.54689C13.9651 7.75766 13.9275 6.96091 14.0553 6.18296C14.2245 5.4501 15.0966 5.63802 15.6417 5.4426C15.965 6.44229 16.0102 7.49459 16.0139 8.53938C16.7244 8.53562 17.4387 8.53938 18.1567 8.54314C18.6718 6.56631 19.1642 4.58196 19.6454 2.59761C15.2057 2.55626 10.7622 2.5976 6.3224 2.57881ZM2.64202 25.2185C2.30368 26.2369 1.76987 27.3419 2.19092 28.4205C2.6082 29.7208 3.9465 30.5552 5.29986 30.4574C10.5629 30.4574 15.8335 30.4988 21.1003 30.4386C23.0326 30.4086 24.5025 28.2326 23.7356 26.4324C21.9123 21.137 20.089 15.8379 18.2319 10.5538C14.7433 10.5538 11.2546 10.5764 7.76597 10.5388C5.98405 15.4057 4.37506 20.3365 2.64202 25.2185Z" fill="#830900"/>
<path d="M11.9501 13.8831C12.3862 13.729 12.8335 13.5937 13.2884 13.481C14.1079 13.8117 13.9237 14.7851 14.0553 15.4916C15.0102 15.5104 15.965 15.563 16.9161 15.6833C16.8598 16.2959 17.1567 17.3219 16.2958 17.476C14.638 17.6301 12.9726 17.5023 11.311 17.5699C11.0779 18.1562 10.8599 18.8177 11.3824 19.34C12.8373 19.7572 14.5816 19.0544 15.841 20.103C17.153 21.0726 17.3635 23.0983 16.3635 24.3648C15.8485 25.139 14.8861 25.3157 14.0591 25.5599C13.9763 26.1838 13.8861 26.8114 13.7809 27.4353C13.1493 27.4315 12.514 27.3714 11.9614 27.0369C11.9726 26.5333 11.9839 26.0297 11.9952 25.5261C11.0779 25.5186 10.1644 25.4923 9.25466 25.4585C9.12684 24.8346 9.11556 24.1995 9.17571 23.5681C10.796 23.429 12.42 23.5568 14.0403 23.4328C14.8636 23.4704 15.356 22.1775 14.5929 21.7528C13.2621 21.1853 11.608 21.9069 10.3674 21.0313C8.95768 20.1781 8.51407 18.0961 9.52532 16.7769C10.0554 15.8712 11.1456 15.6457 12.0591 15.3225C12.0178 14.8414 11.9802 14.3604 11.9501 13.8831Z" fill="#830900"/>
</svg>
