<svg width="66" height="66" viewBox="0 0 66 66" fill="none" xmlns="http://www.w3.org/2000/svg">
<path d="M24.8433 9.10377C30.2946 8.97657 35.7656 8.94309 41.2169 9.13724C42.4085 12.0495 43.5607 14.9818 44.726 17.9075C48.5445 17.9409 52.3762 17.787 56.1947 17.9543C58.7229 17.9543 60.9218 20.2841 60.9086 22.8416C61.0074 25.5329 61.0732 28.2442 60.8494 30.9356C60.1713 32.1942 58.6373 32.6294 57.63 33.5867C57.0901 41.2724 57.867 49.025 57.2481 56.7173C55.5956 56.9382 53.9365 57.0119 52.2775 56.9985C38.4254 56.9516 24.58 57.0253 10.7279 56.965C10.0103 56.8579 8.52899 56.8847 8.65408 55.7734C8.37756 48.3689 8.64091 40.951 8.53557 33.5466C7.40976 32.857 6.20495 32.2812 5.25032 31.3506C4.84872 28.5455 5.03964 25.6735 5.08573 22.8483C5.11207 20.177 7.48877 17.8003 10.1354 17.9208C13.8486 17.8472 17.5684 17.9142 21.2881 17.9075C22.4732 14.9751 23.5595 11.9959 24.8433 9.10377ZM25.212 17.9008C30.4328 17.8874 35.6537 17.9208 40.868 17.8874C40.1767 16.0999 39.4722 14.3191 38.7217 12.5583C34.89 12.5583 31.0517 12.565 27.22 12.565C26.5419 14.3391 25.844 16.1066 25.212 17.9008ZM8.91084 21.7503C8.39073 24.2675 8.52899 26.8517 8.58824 29.4092C13.9013 32.4352 19.7278 34.4236 25.7387 35.401C26.0284 34.1022 25.9757 31.8662 27.9113 32.1407C31.9208 32.2009 36.0026 31.6988 39.9528 32.5959C39.9726 33.5265 39.9923 34.4637 40.0121 35.4077C46.1283 34.5374 52.0339 32.4486 57.4259 29.4025C57.4391 27.22 57.6036 25.024 57.314 22.8616C57.2679 21.6699 55.905 21.4156 54.9702 21.4624C43.0932 21.4356 31.2163 21.4758 19.3328 21.4557C15.8632 21.5026 12.3673 21.2683 8.91084 21.7503ZM12.0513 35.2337C12.0513 41.2992 11.9986 47.3714 12.0644 53.4369C26.0284 53.4168 39.9857 53.4034 53.9431 53.4435C53.9695 47.378 54.0221 41.3125 53.9365 35.2537C49.486 37.068 44.8379 38.3735 40.0911 39.0832C39.9594 40.2816 39.7882 41.4799 39.5644 42.6649C35.1863 42.6984 30.7357 43.1068 26.3905 42.4507C26.0613 41.3527 26.0152 40.2012 25.8835 39.0832C21.1367 38.3601 16.4886 37.0881 12.0513 35.2337ZM29.5111 35.6688C29.5045 36.8471 29.498 38.0321 29.498 39.2171C31.8023 39.197 34.1065 39.2037 36.4174 39.2506C36.4635 38.0589 36.5096 36.8672 36.5557 35.6755C34.2119 35.6487 31.8615 35.6353 29.5111 35.6688Z" fill="#830900"/>
</svg>
