<svg width="20" height="20" viewBox="0 0 20 20" fill="none" xmlns="http://www.w3.org/2000/svg">
<path d="M5 7.49984V1.6665H15V7.49984" stroke="#444444" stroke-width="2" stroke-linecap="round" stroke-linejoin="round"/>
<path d="M4.99935 15H3.33268C2.89065 15 2.46673 14.8244 2.15417 14.5118C1.84161 14.1993 1.66602 13.7754 1.66602 13.3333V9.16667C1.66602 8.72464 1.84161 8.30072 2.15417 7.98816C2.46673 7.6756 2.89065 7.5 3.33268 7.5H16.666C17.108 7.5 17.532 7.6756 17.8445 7.98816C18.1571 8.30072 18.3327 8.72464 18.3327 9.16667V13.3333C18.3327 13.7754 18.1571 14.1993 17.8445 14.5118C17.532 14.8244 17.108 15 16.666 15H14.9993" stroke="#444444" stroke-width="2" stroke-linecap="round" stroke-linejoin="round"/>
<path d="M15 11.6665H5V18.3332H15V11.6665Z" stroke="#444444" stroke-width="2" stroke-linecap="round" stroke-linejoin="round"/>
</svg>
