<svg width="66" height="66" viewBox="0 0 66 66" fill="none" xmlns="http://www.w3.org/2000/svg">
<path d="M26.4083 8.73823C29.4103 7.55807 33.0176 9.62853 33.6313 12.7508C34.3694 15.6867 32.2049 18.9622 29.1864 19.3514C26.0849 20.0347 22.8092 17.459 22.7387 14.2912C22.5065 11.8812 24.1444 9.51258 26.4083 8.73823ZM27.6688 11.2228C25.7697 11.5085 24.8617 13.9309 25.919 15.4714C26.9763 17.2851 29.9866 17.0118 30.7744 15.0738C31.7944 13.1317 29.7752 10.6679 27.6688 11.2228Z" fill="#830900"/>
<path d="M12.9339 19.4885C16.4146 18.3447 20.217 18.437 23.7925 19.0952C25.5494 19.3882 27.2155 20.2711 28.2135 21.74C29.7724 24.0718 30.9519 26.6846 32.9026 28.7475C35.2079 29.4819 37.703 29.205 40.0537 29.7227C41.9631 30.3167 42.8415 32.6726 41.9095 34.3663C41.2538 35.5502 39.8598 36.2486 38.4865 36.1041C35.9502 35.9396 33.3974 35.7429 30.9271 35.1369C29.1909 34.7516 28.0238 33.3509 26.8856 32.1308C26.4072 33.1101 25.937 34.0974 25.471 35.0847C27.6939 36.8105 30.0776 38.48 31.5911 40.8801C33.216 43.4607 34.1563 46.4186 34.5934 49.4046C34.9605 51.1826 34.0202 53.1973 32.2427 53.8715C30.1642 54.7906 27.3969 53.6026 26.8608 51.4073C26.5268 49.7698 26.535 48.036 25.7679 46.5109C25.0215 44.8654 23.5698 43.6975 22.213 42.5456C19.2313 47.1089 15.5403 51.4153 10.5832 54.02C8.73559 54.8548 6.30239 54.008 5.45284 52.206C4.57029 50.6006 5.09405 48.3932 6.61995 47.3417C8.36031 46.1377 10.1708 44.9858 11.6018 43.4206C12.9916 41.8674 14.2 40.1737 15.3671 38.456C13.5277 36.9309 12.3441 34.5429 12.9009 32.1709C13.5442 29.811 14.9382 27.7361 15.7465 25.4364C14.0845 26.0906 12.7235 27.2746 11.7544 28.7274C10.8554 29.8592 10.4223 31.3803 9.115 32.1589C7.44888 33.2225 4.78887 32.5161 4.19088 30.5856C3.58052 28.9843 4.55792 27.407 5.37861 26.0745C7.18907 23.2692 9.62227 20.5842 12.9339 19.4885ZM10.8224 23.7668C8.98304 25.4886 7.34579 27.5395 6.56634 29.9355C6.83853 29.9355 7.39114 29.9314 7.66746 29.9314C8.77683 28.4665 9.59752 26.7929 10.9255 25.4846C12.7318 23.4457 15.5856 22.4745 18.2993 22.5668C19.0127 22.5588 19.2478 23.2652 19.6066 23.7267C18.3941 26.4679 17.0744 29.1609 15.8413 31.894C15.0124 33.5435 15.7671 35.6947 17.4538 36.5094C19.3427 37.4646 21.2645 38.3917 22.943 39.6841C25.2607 41.442 27.6196 43.4607 28.5888 46.254C29.1538 47.6547 29.2445 49.1718 29.5043 50.6447C29.5538 51.2106 30.2673 51.3591 30.622 51.7123C31.1375 51.327 32.0489 51.0742 31.9375 50.2675C31.7272 47.9557 31.0055 45.6922 30.0157 43.5891C28.7249 40.86 26.234 38.9295 23.7678 37.2479C23.1698 36.7583 22.1511 36.3208 22.4357 35.3937C23.0419 33.5676 24.0523 31.894 24.7988 30.1201C25.2194 29.2331 25.6277 27.8926 26.9186 28.0772C28.3084 28.8759 28.828 30.5535 30.0405 31.5689C31.1993 32.8532 33.0758 32.8372 34.6718 33.1021C36.1977 33.2265 37.7442 33.5676 39.2784 33.3549C39.4144 33.0218 39.5382 32.6887 39.6495 32.3556C36.9029 31.902 34.0779 31.9462 31.3931 31.1515C29.1992 28.8478 27.7063 26.0465 26.0566 23.3735C25.0421 21.7441 22.877 21.5795 21.1284 21.3788C17.5941 21.0658 13.5484 21.2665 10.8224 23.7668ZM11.4368 47.2052C10.3027 48.1444 8.98303 48.8467 7.88603 49.822C7.41589 50.717 8.15822 51.7605 9.18099 51.6922C13.8164 49.3364 17.2394 45.2788 19.9489 41.0125C19.3509 40.4266 18.5797 40.0694 17.8621 39.656C15.9156 42.3169 14.1092 45.1664 11.4368 47.2052Z" fill="#830900"/>
<path d="M51.3549 21.0105C51.6793 20.2057 52.6319 20.3495 53.3258 20.3125C55.847 25.4081 58.1505 30.6104 60.606 35.7389C61.0495 36.5108 61.3246 37.8042 60.2652 38.2025C59.1319 38.416 57.9781 38.3133 56.8366 38.3339C56.8653 44.5504 56.8653 50.767 56.8489 56.9835C56.9187 57.6815 56.5574 58.5027 55.7649 58.5438C53.6995 58.6341 51.6218 58.5807 49.5523 58.5807C48.69 58.6095 48.0453 57.8293 48.1973 56.9917C48.1726 50.771 48.2055 44.5463 48.1932 38.3257C46.7724 38.3339 45.2901 38.4858 43.9844 37.8206C44.0295 37.0528 44.124 36.285 44.4935 35.6034C46.8176 30.7541 48.9897 25.8351 51.3549 21.0105ZM47.5115 35.5582C48.5586 35.6116 49.6057 35.6896 50.6404 35.8538C50.7923 36.7366 50.9237 37.6276 50.9155 38.5269C50.895 44.3082 50.895 50.0894 50.9155 55.8707C51.9996 55.8666 53.0836 55.8748 54.1676 55.8913C54.1388 49.9663 54.1799 44.0372 54.1471 38.1121C54.1717 37.4059 54.0937 36.6381 54.4632 36.0017C55.3748 35.4597 56.4917 35.6567 57.5018 35.5541C55.81 32.0188 54.2497 28.4219 52.5005 24.9195C50.8293 28.4589 49.1992 32.0229 47.5115 35.5582Z" fill="#830900"/>
<path d="M37.6544 42.7564C38.8663 42.2004 40.2676 42.5509 41.5601 42.4542C42.7882 42.5388 44.1209 42.2206 45.2685 42.7805C45.7879 43.3888 45.6349 44.2308 45.6872 44.972C45.6631 48.9924 45.7073 53.0168 45.6671 57.0372C45.7114 57.7744 45.2846 58.6647 44.4148 58.5478C42.3613 58.5962 40.3038 58.6365 38.2583 58.5277C37.4531 58.564 37.1309 57.7422 37.1913 57.0654C37.1712 52.7509 37.1833 48.4365 37.1833 44.126C37.2598 43.6748 37.139 42.9699 37.6544 42.7564ZM39.8126 45.1452C39.8488 48.7386 39.8287 52.336 39.8247 55.9334C40.8796 55.9374 41.9345 55.9374 42.9895 55.9455C43.074 52.3279 43.0297 48.7144 43.0177 45.1009C41.9506 45.117 40.8796 45.1251 39.8126 45.1452Z" fill="#830900"/>
<path d="M27.1803 58.5022C26.9459 57.9802 26.6932 57.1321 27.7187 56.964C29.6527 56.8545 31.6086 56.8978 33.5499 56.9462C34.9601 56.8621 34.993 58.5863 33.6085 58.5659C31.4658 58.6041 29.3157 58.6296 27.1803 58.5022Z" fill="#830900"/>
</svg>
