<svg width="97" height="97" viewBox="0 0 97 97" fill="none" xmlns="http://www.w3.org/2000/svg">
<circle opacity="0.1" cx="48.5" cy="48.5" r="48.5" fill="#830900"/>
<path d="M64.8327 47.543V48.9996C64.8307 52.414 63.7251 55.7362 61.6808 58.4708C59.6365 61.2055 56.7629 63.206 53.4887 64.1741C50.2144 65.1422 46.715 65.026 43.5123 63.8427C40.3095 62.6595 37.5751 60.4726 35.7167 57.6083C33.8584 54.744 32.9757 51.3557 33.2003 47.9488C33.425 44.5418 34.7449 41.2988 36.9633 38.7033C39.1817 36.1078 42.1796 34.299 45.51 33.5465C48.8404 32.7941 52.3248 33.1383 55.4435 34.528" stroke="black" stroke-width="2" stroke-linecap="round" stroke-linejoin="round"/>
<path d="M64.8333 36.333L49 52.1822L44.25 47.4322" stroke="black" stroke-width="2" stroke-linecap="round" stroke-linejoin="round"/>
</svg>
