<svg width="44" height="44" viewBox="0 0 44 44" fill="none" xmlns="http://www.w3.org/2000/svg">
<path d="M31.1663 38.5V34.8333C31.1663 32.8884 30.3937 31.0232 29.0185 29.6479C27.6432 28.2726 25.7779 27.5 23.833 27.5H9.16634C7.22142 27.5 5.35616 28.2726 3.98089 29.6479C2.60562 31.0232 1.83301 32.8884 1.83301 34.8333V38.5" stroke="white" stroke-width="3" stroke-linecap="round" stroke-linejoin="round"/>
<path d="M16.5003 20.1667C20.5504 20.1667 23.8337 16.8834 23.8337 12.8333C23.8337 8.78325 20.5504 5.5 16.5003 5.5C12.4502 5.5 9.16699 8.78325 9.16699 12.8333C9.16699 16.8834 12.4502 20.1667 16.5003 20.1667Z" stroke="white" stroke-width="3" stroke-linecap="round" stroke-linejoin="round"/>
<path d="M42.167 38.5V34.8333C42.1658 33.2085 41.625 31.63 40.6295 30.3459C39.634 29.0617 38.2402 28.1445 36.667 27.7383" stroke="white" stroke-width="3" stroke-linecap="round" stroke-linejoin="round"/>
<path d="M29.333 5.73828C30.9104 6.14217 32.3086 7.05957 33.307 8.34585C34.3054 9.63213 34.8474 11.2141 34.8474 12.8424C34.8474 14.4708 34.3054 16.0528 33.307 17.339C32.3086 18.6253 30.9104 19.5427 29.333 19.9466" stroke="white" stroke-width="3" stroke-linecap="round" stroke-linejoin="round"/>
</svg>
