<svg width="61" height="55" viewBox="0 0 61 55" fill="none" xmlns="http://www.w3.org/2000/svg">
<path d="M0.761673 13.733C2.54174 7.08614 8.35567 1.82729 15.074 0.40346C20.3711 -0.741324 26.0558 0.610971 30.4701 3.68758C32.9967 2.13497 35.6811 0.746908 38.6455 0.281839C46.017 -1.02751 54.0632 2.37825 58.0325 8.76043C61.65 14.2625 61.9299 21.6679 59.0373 27.542C57.3147 31.098 54.1924 33.6452 51.5223 36.4713C50.3739 37.7735 48.7948 38.5033 47.2085 39.1187C46.6127 41.7874 44.6173 43.8194 41.9114 44.3632C41.251 47.125 39.191 49.1928 36.4132 49.8439C35.8031 52.4983 33.7575 54.9668 30.8362 54.9811C27.9149 55.2387 25.9482 52.8132 24.1035 50.9744C17.823 44.6709 11.4421 38.4676 5.23336 32.0997C0.582217 27.356 -1.14041 20.0794 0.761673 13.733ZM13.4088 4.98978C7.6379 7.24357 3.60404 13.2251 3.88397 19.4284C3.93422 23.4566 5.82195 27.3131 8.70738 30.0892C15.3252 36.6288 21.8928 43.2256 28.4891 49.7866C29.171 50.3519 29.8313 51.1532 30.8147 51.1389C31.5252 50.6667 32.2071 50.1658 32.8675 49.6292C30.4271 45.6726 26.3932 43.0968 23.5724 39.4621C23.6657 38.5606 23.8236 37.6733 24.0389 36.8004C24.9935 36.9865 26.142 36.8219 26.9028 37.566C29.7667 40.0345 32.1138 43.0467 35.0639 45.4221C36.4133 46.6671 38.7891 44.213 37.454 42.9537C35.0854 40.0631 32.0851 37.7521 29.6303 34.9473C28.7618 34.1746 29.0418 32.9511 28.9269 31.9351C29.7882 31.7777 30.6568 31.6561 31.5396 31.5845C34.7193 34.146 37.1741 37.5088 40.4112 40.0059C41.897 41.4225 42.7583 39.2188 43.5551 38.2386C40.7988 35.0117 37.4325 32.3644 34.7193 29.1232C33.3627 27.7424 35.3007 25.3598 36.9516 26.3042C39.8011 28.4292 42.019 31.2912 44.6389 33.6952C45.2705 34.1675 45.8376 35.0475 46.742 34.9545C48.3354 35.1191 49.2757 32.7508 47.9263 31.7992C43.5407 27.2129 38.9254 22.8412 34.4824 18.305C32.5804 20.0651 30.6639 22.1043 27.9866 22.5622C24.204 23.5496 20.2347 21.7179 17.8661 18.7844C17.1699 18.1262 16.7751 16.9385 17.6005 16.2158C20.7874 12.76 24.405 9.71915 27.556 6.2204C23.2565 3.96661 17.9953 2.96494 13.4088 4.98978ZM30.4199 9.03943C27.6206 11.8227 24.6418 14.4414 22.0579 17.4322C23.7016 18.9848 26.3788 19.4856 28.3671 18.2836C30.4199 17.0673 31.8483 15.0782 33.8293 13.7617C35.5591 13.361 36.6429 15.0996 37.7986 16.0727C42.4425 20.9452 47.4238 25.4957 51.9817 30.4469C57.1568 25.8821 58.7789 17.747 55.2331 11.7297C52.0965 5.71956 44.5312 2.56427 38.0139 4.41023C35.0926 5.16865 32.5301 6.92158 30.4199 9.03943Z" fill="#830900"/>
</svg>
