<svg width="14" height="13" viewBox="0 0 14 13" fill="none" xmlns="http://www.w3.org/2000/svg">
<path d="M12.1566 1.69023C11.8586 1.39215 11.5049 1.15569 11.1155 0.994364C10.7262 0.833036 10.3089 0.75 9.88741 0.75C9.46596 0.75 9.04863 0.833036 8.65928 0.994364C8.26993 1.15569 7.91618 1.39215 7.61824 1.69023L6.99991 2.30856L6.38157 1.69023C5.77975 1.08841 4.96351 0.750312 4.11241 0.750312C3.2613 0.750312 2.44506 1.08841 1.84324 1.69023C1.24142 2.29205 0.90332 3.1083 0.90332 3.9594C0.90332 4.8105 1.24142 5.62674 1.84324 6.22856L2.46157 6.8469L6.99991 11.3852L11.5382 6.8469L12.1566 6.22856C12.4547 5.93062 12.6911 5.57687 12.8524 5.18752C13.0138 4.79817 13.0968 4.38085 13.0968 3.9594C13.0968 3.53795 13.0138 3.12063 12.8524 2.73127C12.6911 2.34192 12.4547 1.98817 12.1566 1.69023V1.69023Z" stroke="white" stroke-width="1.5" stroke-linecap="round" stroke-linejoin="round"/>
</svg>
